<svg id="color" enable-background="new 0 0 24 24" height="512" viewBox="0 0 24 24" width="512" xmlns="http://www.w3.org/2000/svg"><g fill="#607d8b"><path d="m10.75 21.5c-.414 0-.75-.336-.75-.75v-6.5c0-.414.336-.75.75-.75s.75.336.75.75v6.5c0 .414-.336.75-.75.75z"/><path d="m10.75 18.5h-2.5c-.965 0-1.75-.785-1.75-1.75v-2.5c0-.414.336-.75.75-.75s.75.336.75.75v2.5c0 .138.112.25.25.25h2.5c.414 0 .75.336.75.75s-.336.75-.75.75z"/><path d="m16.75 21.5h-2.5c-.965 0-1.75-.785-1.75-1.75v-4.5c0-.965.785-1.75 1.75-1.75h2.5c.414 0 .75.336.75.75s-.336.75-.75.75h-2.5c-.138 0-.25.112-.25.25v4.5c0 .138.112.25.25.25h1.75v-1.5h-.75c-.414 0-.75-.336-.75-.75s.336-.75.75-.75h1.5c.414 0 .75.336.75.75v3c0 .414-.336.75-.75.75z"/></g><path d="m21 15.5c-.414 0-.75-.336-.75-.75v-2.5c0-.414.336-.75.75-.75s.75.336.75.75v2.5c0 .414-.336.75-.75.75z" fill="#f44336"/><path d="m22.25 14.25h-2.5c-.414 0-.75-.336-.75-.75s.336-.75.75-.75h2.5c.414 0 .75.336.75.75s-.336.75-.75.75z" fill="#f44336"/><path d="m19.75 5.187c-.254 0-.509-.097-.704-.29-1.883-1.868-4.386-2.897-7.046-2.897s-5.163 1.029-7.046 2.896c-.392.39-1.025.387-1.414-.005s-.386-1.026.006-1.414c2.26-2.242 5.263-3.477 8.454-3.477s6.194 1.235 8.454 3.477c.392.389.395 1.022.006 1.414-.195.197-.453.296-.71.296z" fill="#8bc34a"/><path d="m17.052 7.862c-.255 0-.509-.097-.704-.29-1.164-1.155-2.708-1.79-4.348-1.79s-3.184.635-4.348 1.79c-.392.389-1.025.387-1.414-.006-.389-.392-.386-1.024.006-1.414 1.54-1.528 3.585-2.37 5.756-2.37s4.216.842 5.756 2.371c.392.389.395 1.022.006 1.414-.195.197-.452.295-.71.295z" fill="#8bc34a"/><path d="m14.354 10.538c-.257 0-.514-.099-.709-.295-.869-.875-2.421-.875-3.29 0-.389.391-1.022.394-1.414.005-.392-.39-.394-1.023-.005-1.415.812-.818 1.9-1.269 3.064-1.269s2.252.451 3.064 1.269c.389.392.387 1.025-.005 1.414-.195.194-.45.291-.705.291z" fill="#8bc34a"/></svg>