<svg id="color" enable-background="new 0 0 24 24" height="512" viewBox="0 0 24 24" width="512" xmlns="http://www.w3.org/2000/svg"><path d="m6.83 22c-.145 0-.29-.031-.427-.095-.349-.165-.573-.518-.573-.905v-7.333l-4.173 3.636c-.416.362-1.05.32-1.411-.097-.363-.416-.319-1.048.097-1.411l5.487-4.781v-10.014c0-.39.227-.745.581-.908.353-.162.77-.106 1.067.147l6.32 5.39c.228.193.356.478.352.776s-.143.579-.375.765l-5.945 4.766v6.942l1.283-1.059c.428-.352 1.057-.291 1.408.134.352.426.291 1.056-.135 1.408l-2.92 2.41c-.182.151-.408.229-.636.229zm1-18.833v6.2l3.751-3.001z" fill="#2196f3"/><path d="m10.359 14.32c-.215 0-.432-.069-.614-.212l-3.559-2.812-5.843-5.092c-.416-.363-.46-.995-.097-1.411.362-.417.996-.458 1.411-.097l6.376 5.538 2.942 2.297c.436.34.513.968.173 1.403-.197.254-.491.386-.789.386z" fill="#2196f3"/><g fill="#607d8b"><path d="m16.75 22c-2.895 0-5.25-2.355-5.25-5.25s2.355-5.25 5.25-5.25 5.25 2.355 5.25 5.25-2.355 5.25-5.25 5.25zm0-8.5c-1.792 0-3.25 1.458-3.25 3.25s1.458 3.25 3.25 3.25 3.25-1.458 3.25-3.25-1.458-3.25-3.25-3.25z"/><path d="m23 24c-.256 0-.512-.098-.707-.293l-3.25-3.25c-.391-.391-.391-1.023 0-1.414s1.023-.391 1.414 0l3.25 3.25c.391.391.391 1.023 0 1.414-.195.195-.451.293-.707.293z"/></g></svg>