<svg id="color" enable-background="new 0 0 24 24" height="512" viewBox="0 0 24 24" width="512" xmlns="http://www.w3.org/2000/svg"><path d="m22 24h-20v-15.25c0-1.519 1.231-2.75 2.75-2.75h14.5c1.519 0 2.75 1.231 2.75 2.75z" fill="#607d8b"/><g fill="#2196f3"><path d="m12 8.25c-.689 0-1.25-.561-1.25-1.25s.561-1.25 1.25-1.25 1.25.561 1.25 1.25-.561 1.25-1.25 1.25z"/><path d="m12 4c-.414 0-.75-.336-.75-.75v-2.5c0-.414.336-.75.75-.75s.75.336.75.75v2.5c0 .414-.336.75-.75.75z"/><path d="m14.725 5.025c-.192 0-.384-.073-.53-.22-.293-.293-.293-.768 0-1.061l1.621-1.621c.293-.293.768-.293 1.061 0s.293.768 0 1.061l-1.621 1.621c-.147.147-.339.22-.531.22z"/><path d="m16.346 12.096c-.192 0-.384-.073-.53-.22l-1.621-1.621c-.293-.293-.293-.768 0-1.061s.768-.293 1.061 0l1.621 1.621c.293.293.293.768 0 1.061-.147.147-.339.22-.531.22z"/><path d="m12 14c-.414 0-.75-.336-.75-.75v-2.5c0-.414.336-.75.75-.75s.75.336.75.75v2.5c0 .414-.336.75-.75.75z"/><path d="m7.654 12.096c-.192 0-.384-.073-.53-.22-.293-.293-.293-.768 0-1.061l1.621-1.621c.293-.293.768-.293 1.061 0s.293.768 0 1.061l-1.621 1.621c-.147.147-.339.22-.531.22z"/><path d="m9.274 4.775c-.171 0-.343-.058-.484-.177l-1.621-1.371c-.316-.268-.356-.741-.088-1.058.267-.316.74-.356 1.057-.088l1.621 1.371c.316.268.356.741.088 1.057-.148.176-.359.266-.573.266z"/></g></svg>