<svg id="color" enable-background="new 0 0 24 24" height="512" viewBox="0 0 24 24" width="512" xmlns="http://www.w3.org/2000/svg"><path d="m18.25 24h-12.5c-.965 0-1.75-.785-1.75-1.75v-20.5c0-.965.785-1.75 1.75-1.75h12.5c.965 0 1.75.785 1.75 1.75v20.5c0 .965-.785 1.75-1.75 1.75z" fill="#607d8b"/><path d="m18 21.5h-12v-19h12z" fill="#eceff1"/><g fill="#455a64"><path d="m13.25 5.25h-2.5c-.414 0-.75-.336-.75-.75s.336-.75.75-.75h2.5c.414 0 .75.336.75.75s-.336.75-.75.75z"/><path d="m10 20.25h-2c-.414 0-.75-.336-.75-.75s.336-.75.75-.75h2c.414 0 .75.336.75.75s-.336.75-.75.75z"/><path d="m16 20.25h-2c-.414 0-.75-.336-.75-.75s.336-.75.75-.75h2c.414 0 .75.336.75.75s-.336.75-.75.75z"/></g></svg>