<svg id="color" enable-background="new 0 0 24 24" height="512" viewBox="0 0 24 24" width="512" xmlns="http://www.w3.org/2000/svg"><path d="m13.35 13.91c-2.17-.04-1.61.01-2.35.01-1.34 0-2.67-2.54-2.67-2.54s-.24 1.61.67 2.9c-3.34 0-4.68-3.61-4.68-3.61 0 2.18-2.32 3.25-2.32 3.25l-2 .92v-2.74c0-2.92 1.84-4 3.14-4.23.29-.72 1.16-1.8 3.84-1.87.69-.02 1.37.06 2.03.22-.01.09-.01.19-.01.28 0 3.18 1.75 5.96 4.35 7.41z" fill="#607d8b"/><path d="m14 14.24v1.18c0 1.1-.21 2.19-.62 3.23-.16.36-.5.99-.54 1.06-1.31 2.24-2.92 4.29-5.84 4.29-3 0-4.66-2.2-5.9-4.36-.01-.02-.34-.65-.48-.99-.41-1.02-.62-2.11-.62-3.23v-.58l2-.92s2.32-1.07 2.32-3.25c0 0 1.34 3.61 4.68 3.61-.91-1.29-.67-2.9-.67-2.9s1.33 2.54 2.67 2.54c.74 0 .18-.05 2.34-.01h.01c.21.13.42.24.65.33z" fill="#ffcc80"/><path d="m17.5 0c-3.584 0-6.5 2.916-6.5 6.5s2.916 6.5 6.5 6.5 6.5-2.916 6.5-6.5-2.916-6.5-6.5-6.5zm2.401 7.841c.293.293.293.768 0 1.061-.146.146-.338.22-.53.22s-.384-.073-.53-.22l-1.341-1.341-1.341 1.341c-.146.146-.338.22-.53.22s-.384-.073-.53-.22c-.293-.293-.293-.768 0-1.061l1.34-1.341-1.341-1.341c-.293-.293-.293-.768 0-1.061s.768-.293 1.061 0l1.341 1.341 1.341-1.341c.293-.293.768-.293 1.061 0s.293.768 0 1.061l-1.341 1.341z" fill="#ffc107"/></svg>