<svg id="color" enable-background="new 0 0 24 24" height="512" viewBox="0 0 24 24" width="512" xmlns="http://www.w3.org/2000/svg"><path d="m13.9 13.93c-2.81-.07-2.1-.01-2.9-.01-1.34 0-2.67-2.54-2.67-2.54s-.24 1.61.67 2.9c-3.34 0-4.68-3.61-4.68-3.61 0 2.18-2.32 3.25-2.32 3.25l-2 .92v-2.74c0-2.92 1.84-4 3.14-4.23.29-.72 1.16-1.8 3.84-1.87 1.05-.03 2.08.15 3.02.51v.04c0 3.26 1.88 5.75 3.9 7.38z" fill="#607d8b"/><path d="m14 13.93v1.49c0 1.1-.21 2.19-.62 3.23-.16.36-.5.99-.54 1.06-1.31 2.24-2.92 4.29-5.84 4.29-3 0-4.66-2.2-5.9-4.36-.01-.02-.34-.65-.48-.99-.41-1.02-.62-2.11-.62-3.23v-.58l2-.92s2.32-1.07 2.32-3.25c0 0 1.34 3.61 4.68 3.61-.91-1.29-.67-2.9-.67-2.9s1.33 2.54 2.67 2.54c.8 0 .09-.06 2.9.01z" fill="#ffcc80"/><g fill="#4caf50"><path d="m14 13.93v.08c-.04-.02-.07-.05-.1-.08z"/><path d="m23.492 1.826-5.25-1.786c-.157-.054-.326-.054-.483 0l-5.25 1.786c-.304.103-.509.388-.509.71v4.018c0 4.904 5.474 7.288 5.707 7.387.093.039.193.059.293.059s.2-.02.293-.06c.233-.099 5.707-2.482 5.707-7.386v-4.018c0-.322-.205-.607-.508-.71zm-2.142 3.374-3 4c-.13.174-.33.283-.547.298-.018.002-.035.002-.053.002-.198 0-.389-.079-.53-.22l-2-2c-.293-.293-.293-.768 0-1.061s.768-.293 1.061 0l1.389 1.389 2.48-3.308c.249-.33.719-.397 1.05-.15.331.248.399.719.15 1.05z"/></g></svg>