<svg id="color" enable-background="new 0 0 24 24" height="512" viewBox="0 0 24 24" width="512" xmlns="http://www.w3.org/2000/svg"><path d="m17.5 0c-3.584 0-6.5 2.916-6.5 6.5s2.916 6.5 6.5 6.5 6.5-2.916 6.5-6.5-2.916-6.5-6.5-6.5zm2.401 7.841c.293.293.293.768 0 1.061-.146.146-.338.22-.53.22s-.384-.073-.53-.22l-1.341-1.341-1.341 1.341c-.146.146-.338.22-.53.22s-.384-.073-.53-.22c-.293-.293-.293-.768 0-1.061l1.34-1.341-1.341-1.341c-.293-.293-.293-.768 0-1.061s.768-.293 1.061 0l1.341 1.341 1.341-1.341c.293-.293.768-.293 1.061 0s.293.768 0 1.061l-1.341 1.341z" fill="#f44336"/><g fill="#2196f3"><path d="m1.743 9.076c-.206 0-.412-.085-.561-.251-.275-.31-.247-.784.062-1.059 2.005-1.784 4.578-2.766 7.246-2.766.378 0 .745.021 1.113.063.411.046.707.418.66.83s-.416.704-.83.661c-.311-.036-.621-.054-.943-.054-2.3 0-4.519.848-6.248 2.387-.143.127-.321.189-.499.189z"/><path d="m.733 12.888c-.146 0-.294-.043-.425-.132-.341-.235-.427-.702-.192-1.043 1.909-2.773 5.039-4.428 8.374-4.428.433 0 .824.024 1.196.075.41.055.698.433.643.843s-.431.7-.844.643c-.3-.041-.635-.061-.995-.061-2.841 0-5.51 1.413-7.138 3.778-.145.211-.379.325-.619.325z"/><path d="m6.606 24c-.19 0-.381-.072-.526-.216-.133-.13-3.239-3.23-3.239-6.24 0-3.141 2.534-5.696 5.649-5.696s5.649 2.555 5.649 5.696c0 .414-.336.75-.75.75s-.75-.336-.75-.75c0-2.313-1.861-4.196-4.149-4.196s-4.149 1.882-4.149 4.196c0 2.381 2.765 5.146 2.793 5.173.294.292.297.766.006 1.061-.147.147-.34.222-.534.222z"/><path d="m2.965 22.892c-.218 0-.434-.095-.582-.277-1.182-1.455-1.807-3.208-1.807-5.071 0-2.209.922-4.34 2.528-5.846 1.61-1.508 3.705-2.253 5.91-2.117.595.043 1.17.153 1.717.325.396.124.615.545.491.94s-.55.617-.94.491c-.437-.137-.898-.224-1.371-.259-1.765-.113-3.477.492-4.781 1.714-1.305 1.223-2.054 2.955-2.054 4.751 0 1.515.509 2.941 1.471 4.126.262.321.212.793-.109 1.055-.139.112-.306.168-.473.168z"/><path d="m10.371 24c-1.477 0-4.901-2.741-5.233-5.792-.117-1.101.224-2.186.934-2.979.629-.703 1.483-1.093 2.406-1.099h.022c.893 0 1.732.347 2.368.979.651.646 1.01 1.511 1.01 2.435v.379c0 .846.677 1.535 1.509 1.535.406 0 .783-.158 1.062-.444.299-.292.456-.675.456-1.09v-.126c0-1.187-.305-2.35-.881-3.362-.205-.36-.08-.818.28-1.023s.818-.078 1.022.281c.705 1.239 1.078 2.658 1.078 4.104v.126c0 .822-.317 1.585-.895 2.15-.551.566-1.31.885-2.124.885-1.659 0-3.009-1.361-3.009-3.035v-.379c0-.521-.201-1.008-.566-1.371-.355-.353-.792-.518-1.325-.542-.633.003-1.055.328-1.297.599-.422.471-.632 1.151-.561 1.819.263 2.395 3.126 4.45 3.744 4.45.414 0 .75.336.75.75s-.336.75-.75.75z"/><path d="m12.589 22.859c-2.218 0-4.896-2.541-4.896-5.696 0-.414.336-.75.75-.75s.75.336.75.75c0 2.316 2.055 4.196 3.396 4.196.414 0 .75.336.75.75s-.336.75-.75.75z"/></g></svg>