<svg id="color" enable-background="new 0 0 24 24" height="512" viewBox="0 0 24 24" width="512" xmlns="http://www.w3.org/2000/svg"><g fill="#2196f3"><path d="m18.741 6.58c-.178 0-.356-.062-.499-.19-1.728-1.541-3.945-2.39-6.242-2.39s-4.514.849-6.242 2.39c-.309.274-.784.25-1.059-.061-.276-.309-.249-.784.061-1.059 2.003-1.786 4.574-2.77 7.24-2.77s5.237.984 7.24 2.77c.31.276.337.75.061 1.059-.148.166-.354.251-.56.251z"/><path d="m19.751 10.391c-.239 0-.474-.114-.619-.326-1.626-2.368-4.292-3.782-7.132-3.782s-5.506 1.414-7.132 3.783c-.234.34-.699.431-1.043.194-.341-.234-.428-.701-.193-1.042 1.905-2.778 5.033-4.435 8.368-4.435s6.463 1.658 8.368 4.434c.234.341.147.808-.193 1.042-.13.09-.279.132-.424.132z"/><path d="m10.117 21.5c-.19 0-.381-.072-.527-.216-.132-.13-3.235-3.23-3.235-6.24 0-3.141 2.532-5.696 5.646-5.696s5.646 2.555 5.646 5.696c0 .414-.336.75-.75.75s-.75-.336-.75-.75c0-2.313-1.859-4.196-4.146-4.196s-4.146 1.882-4.146 4.196c0 2.382 2.763 5.146 2.79 5.173.294.292.297.766.006 1.061-.147.148-.34.222-.534.222z"/><path d="m13.883 21.5c-1.478 0-4.902-2.739-5.233-5.79-.118-1.1.221-2.187.93-2.981.628-.704 1.481-1.094 2.403-1.099.932.019 1.754.345 2.396.984.65.646 1.008 1.509 1.008 2.429v.38c0 .845.678 1.533 1.51 1.533s1.51-.688 1.51-1.533v-.133c0-3.544-2.626-6.493-5.978-6.711-1.789-.12-3.479.491-4.781 1.71-1.305 1.223-2.054 2.956-2.054 4.754 0 1.503.521 2.967 1.465 4.123.262.321.214.793-.106 1.055-.321.263-.793.214-1.056-.106-1.162-1.423-1.803-3.225-1.803-5.072 0-2.212.922-4.344 2.528-5.849 1.608-1.506 3.71-2.256 5.902-2.112 4.139.271 7.38 3.876 7.38 8.208v.133c0 1.672-1.351 3.033-3.01 3.033s-3.01-1.36-3.01-3.033v-.38c0-.518-.201-1.003-.565-1.366-.354-.353-.823-.547-1.32-.547-.004 0-.007 0-.01 0-.63.003-1.05.327-1.292.598-.421.472-.629 1.152-.557 1.821.25 2.295 3.013 4.451 3.743 4.451.414 0 .75.336.75.75s-.336.75-.75.75z"/><path d="m16.096 20.359c-2.216 0-4.893-2.541-4.893-5.696 0-.414.336-.75.75-.75s.75.336.75.75c0 2.316 2.053 4.196 3.393 4.196.414 0 .75.336.75.75s-.336.75-.75.75z"/></g><path d="m23 8.696c-.553 0-1-.448-1-1v-4.74c0-.527-.429-.956-.955-.956h-4.74c-.553 0-1-.448-1-1s.447-1 1-1h4.74c1.63 0 2.955 1.326 2.955 2.956v4.74c0 .552-.447 1-1 1z" fill="#607d8b"/><path d="m1 8.696c-.553 0-1-.448-1-1v-4.74c0-1.63 1.325-2.956 2.955-2.956h4.74c.553 0 1 .448 1 1s-.447 1-1 1h-4.74c-.526 0-.955.429-.955.956v4.74c0 .552-.447 1-1 1z" fill="#607d8b"/><path d="m21.045 24h-4.74c-.553 0-1-.448-1-1s.447-1 1-1h4.74c.526 0 .955-.429.955-.956v-4.74c0-.552.447-1 1-1s1 .448 1 1v4.74c0 1.63-1.325 2.956-2.955 2.956z" fill="#607d8b"/><path d="m7.695 24h-4.74c-1.63 0-2.955-1.326-2.955-2.956v-4.74c0-.552.447-1 1-1s1 .448 1 1v4.74c0 .527.429.956.955.956h4.74c.553 0 1 .448 1 1s-.447 1-1 1z" fill="#607d8b"/></svg>