<svg id="color" enable-background="new 0 0 24 24" height="512" viewBox="0 0 24 24" width="512" xmlns="http://www.w3.org/2000/svg"><path d="m17.25 24h-10.5c-1.517 0-2.75-1.233-2.75-2.75v-18.5c0-1.517 1.233-2.75 2.75-2.75h10.5c1.517 0 2.75 1.233 2.75 2.75v18.5c0 1.517-1.233 2.75-2.75 2.75z" fill="#607d8b"/><path d="m7.25 2c-.689 0-1.25.561-1.25 1.25v17.5c0 .689.561 1.25 1.25 1.25h9.5c.689 0 1.25-.561 1.25-1.25v-17.5c0-.689-.561-1.25-1.25-1.25z" fill="#eceff1"/><path d="m12 18c-.827 0-1.5.673-1.5 1.5s.673 1.5 1.5 1.5 1.5-.673 1.5-1.5-.673-1.5-1.5-1.5z" fill="#455a64"/></svg>