<svg id="color" enable-background="new 0 0 24 24" height="512" viewBox="0 0 24 24" width="512" xmlns="http://www.w3.org/2000/svg"><path d="m18.5 7.77c-.064 0-.129-.012-.191-.038-.187-.077-.309-.26-.309-.462v-3.51c0-.159.076-.309.204-.403.702-.516 1.656-.444 2.27.169.326.328.506.766.506 1.234 0 .461-.177.901-.499 1.236l-1.627 1.627c-.096.096-.224.147-.354.147z" fill="#ffcc80"/><path d="m17.109 0h-.859-5.5-.859c-1.043 0-1.891.925-1.891 2.063v13.875c0 1.137.848 2.062 1.891 2.062h7.219c1.042 0 1.89-.925 1.89-2.062v-13.875c0-1.138-.848-2.063-1.891-2.063z" fill="#607d8b"/><path d="m17.625 15.75c0 .414-.308.75-.688.75h-6.875c-.38 0-.687-.336-.687-.75v-13.75c0-.414.308-.75.687-.75h.344c.38 0 .687.336.687.75 0 .414.308.75.688.75h3.438c.38 0 .688-.336.688-.75 0-.414.308-.75.687-.75h.344c.38 0 .688.336.688.75v13.75z" fill="#eceff1"/><path d="m18.25 10.5h-2.5c-.965 0-1.75-.785-1.75-1.75s.785-1.75 1.75-1.75h2.5c.131 0 .253.015.374.046.785.15 1.376.87 1.376 1.704s-.591 1.554-1.405 1.71c-.092.025-.214.04-.345.04z" fill="#ffe0b2"/><path d="m18.25 13.25h-2.5c-.965 0-1.75-.785-1.75-1.75s.785-1.75 1.75-1.75h2.5c.131 0 .253.015.374.046.785.15 1.376.87 1.376 1.704s-.591 1.554-1.405 1.71c-.092.025-.214.04-.345.04z" fill="#ffcc80"/><path d="m18.25 16h-1.5c-.965 0-1.75-.785-1.75-1.75s.785-1.75 1.75-1.75h1.5c.131 0 .253.015.374.046.785.15 1.376.87 1.376 1.704s-.591 1.554-1.405 1.71c-.092.025-.214.04-.345.04z" fill="#ffb74d"/><path d="m9 21.5c-.128 0-.257-.049-.354-.146l-5-5c-.176-.176-.196-.456-.045-.655l.8-1.06c.385-.522.599-1.166.599-1.809 0-.618.142-1.22.421-1.791l2.012-4.023c.199-.385.53-.656.933-.768.527-.154 1.077-.014 1.468.378.474.475.736 1.105.736 1.774 0 .385-.091.77-.263 1.114l-1.035 2.056c-.105.209-.057.459.115.594 1.527 1.197 2.455 2.938 2.594 4.836h3.519c.189 0 .362.107.447.276.084.169.066.372-.047.523l-.42.56c-.77 1.028-1.996 1.641-3.28 1.641-.667 0-1.327.22-1.86.62l-1.04.78c-.09.067-.195.1-.3.1z" fill="#ffcc80"/><path d="m15.75 18h.725c.114-.151.075-.803-.009-.972-.085-.169-.717-.286-.906-.286l-3.57.258c.043.317.077.645.091 1z" fill="#607d8b"/><path d="m3.354 14.646c-.195-.195-.512-.195-.707 0l-2.647 2.647v6.707h8.707l1.646-1.646c.195-.195.195-.512 0-.707z" fill="#2196f3"/></svg>