<svg id="color" enable-background="new 0 0 24 24" height="512" viewBox="0 0 24 24" width="512" xmlns="http://www.w3.org/2000/svg"><path d="m24 24h-23v-15.25c0-3.176 2.574-5.75 5.75-5.75h17.25z" fill="#607d8b"/><path d="m15.75 14h-7.5c-1.792 0-3.25-1.458-3.25-3.25v-.5c0-1.792 1.458-3.25 3.25-3.25h7.5c1.792 0 3.25 1.458 3.25 3.25v.5c0 1.792-1.458 3.25-3.25 3.25z" fill="#eceff1"/><g fill="#455a64"><path d="m14.5 12c-.827 0-1.5-.673-1.5-1.5s.673-1.5 1.5-1.5 1.5.673 1.5 1.5-.673 1.5-1.5 1.5z"/><path d="m9.5 12c-.827 0-1.5-.673-1.5-1.5s.673-1.5 1.5-1.5 1.5.673 1.5 1.5-.673 1.5-1.5 1.5z"/></g></svg>