<svg id="color" enable-background="new 0 0 24 24" height="512" viewBox="0 0 24 24" width="512" xmlns="http://www.w3.org/2000/svg"><path d="m24 17.25v-10.5c0-1.517-1.233-2.75-2.75-2.75h-15.75-.75-2c-1.519 0-2.75 1.231-2.75 2.75v10.5c0 1.519 1.231 2.75 2.75 2.75h2 .75 15.75c1.517 0 2.75-1.233 2.75-2.75z" fill="#607d8b"/><path d="m4 6v12h16.75c.689 0 1.25-.561 1.25-1.25v-9.5c0-.689-.561-1.25-1.25-1.25z" fill="#eceff1"/><path d="m22.25 14h-18.5c-.414 0-.75-.336-.75-.75s.336-.75.75-.75h18.5c.414 0 .75.336.75.75s-.336.75-.75.75z" fill="#607d8b"/><g fill="#455a64"><path d="m7 17c-.552 0-1-.449-1-1s.448-1 1-1 1 .449 1 1-.448 1-1 1z"/><path d="m11 17c-.552 0-1-.449-1-1s.448-1 1-1 1 .449 1 1-.448 1-1 1z"/><path d="m15 17c-.552 0-1-.449-1-1s.448-1 1-1 1 .449 1 1-.448 1-1 1z"/><path d="m19 17c-.552 0-1-.449-1-1s.448-1 1-1 1 .449 1 1-.448 1-1 1z"/></g></svg>