<svg id="color" enable-background="new 0 0 24 24" height="512" viewBox="0 0 24 24" width="512" xmlns="http://www.w3.org/2000/svg"><path d="m24 17.25v-1.25-8-1.25c0-1.517-1.233-2.75-2.75-2.75h-18.5c-1.517 0-2.75 1.233-2.75 2.75v10.5c0 1.517 1.233 2.75 2.75 2.75h18.5c1.517 0 2.75-1.233 2.75-2.75z" fill="#607d8b"/><path d="m3 18c-.552 0-1-.448-1-1v-10c0-.552.448-1 1-1h18c.552 0 1 .448 1 1v.5c0 .552-.448 1-1 1-.552 0-1 .448-1 1v5c0 .552.448 1 1 1 .552 0 1 .448 1 1v.5c0 .552-.448 1-1 1z" fill="#eceff1"/><path d="m21.25 14h-19.719c-.414 0-.75-.336-.75-.75s.336-.75.75-.75h19.719c.414 0 .75.336.75.75s-.336.75-.75.75z" fill="#607d8b"/><g fill="#455a64"><path d="m7.5 17c-.552 0-1-.449-1-1s.448-1 1-1 1 .449 1 1-.448 1-1 1z"/><path d="m11.5 17c-.552 0-1-.449-1-1s.448-1 1-1 1 .449 1 1-.448 1-1 1z"/><path d="m15.25 17c-.552 0-1-.449-1-1s.448-1 1-1 1 .449 1 1-.448 1-1 1z"/><path d="m19 17c-.552 0-1-.449-1-1s.448-1 1-1 1 .449 1 1-.448 1-1 1z"/><path d="m3.75 17c-.551 0-1-.449-1-1s.449-1 1-1 1 .449 1 1-.449 1-1 1z"/></g></svg>