<svg id="color" enable-background="new 0 0 24 24" height="512" viewBox="0 0 24 24" width="512" xmlns="http://www.w3.org/2000/svg"><path d="m17.25 0h-10.5c-1.517 0-2.75 1.233-2.75 2.75v15.75.75 2c0 1.519 1.231 2.75 2.75 2.75h10.5c1.519 0 2.75-1.231 2.75-2.75v-2-.75-15.75c0-1.517-1.233-2.75-2.75-2.75z" fill="#607d8b"/><path d="m6 20h12v-16.75c0-.689-.561-1.25-1.25-1.25h-9.5c-.689 0-1.25.561-1.25 1.25z" fill="#eceff1"/><g fill="#2196f3"><path d="m7.75 8.389c-.414 0-.75-.336-.75-.75v-1.889c0-.414.336-.75.75-.75h1.889c.414 0 .75.336.75.75s-.336.75-.75.75h-1.139v1.139c0 .414-.336.75-.75.75z"/><path d="m16.25 15h-2.833c-.414 0-.75-.336-.75-.75s.336-.75.75-.75h2.083v-1.139c0-.414.336-.75.75-.75s.75.336.75.75v1.889c0 .414-.336.75-.75.75z"/><path d="m16.25 10.028h-2.583c-.414 0-.75-.336-.75-.75v-3.528c0-.414.336-.75.75-.75h2.583c.414 0 .75.336.75.75v3.528c0 .414-.336.75-.75.75zm-1.833-1.5h1.083v-2.028h-1.083z"/><path d="m11.278 15h-3.528c-.414 0-.75-.336-.75-.75v-2.583c0-.414.336-.75.75-.75h3.528c.414 0 .75.336.75.75v2.583c0 .414-.336.75-.75.75zm-2.778-1.5h2.028v-1.083h-2.028z"/><path d="m10.554 10.278h-2.804c-.414 0-.75-.336-.75-.75s.336-.75.75-.75h2.804c.414 0 .75.336.75.75s-.336.75-.75.75z"/><path d="m13.417 13.111c-.414 0-.75-.336-.75-.75v-.945c0-.414.336-.75.75-.75s.75.336.75.75v.945c0 .414-.336.75-.75.75z"/><path d="m11.528 8.389c-.414 0-.75-.336-.75-.75v-1.889c0-.414.336-.75.75-.75s.75.336.75.75v1.889c0 .414-.336.75-.75.75z"/></g></svg>