<svg id="color" enable-background="new 0 0 24 24" height="512" viewBox="0 0 24 24" width="512" xmlns="http://www.w3.org/2000/svg"><path d="m22.29 6.62-.21-2.2c-.08-.81-.75-1.42-1.55-1.42h-2.84c-.8 0-1.47.61-1.54 1.42l-.22 2.18-.06.61c-.02.19.04.38.17.52.12.14.3.22.49.22h5.16c.19 0 .37-.08.49-.22.13-.14.19-.33.17-.52z" fill="#455a64"/><path d="m22.18 16.27c-.12-.14-.3-.22-.49-.22h-5.16c-.19 0-.37.08-.49.22-.13.14-.19.33-.17.52l.06.61.22 2.18c.07.81.74 1.42 1.54 1.42h2.84c.8 0 1.47-.61 1.55-1.42l.21-2.2.06-.59c.02-.19-.04-.38-.17-.52z" fill="#455a64"/><path d="m22.29 6.62c-.08-.01-.17-.02-.26-.02h-6.1c-.35.01-.67.1-.94.27l1.22 1.24c.02.02.04.05.06.07h5.54c.35 0 .63.28.63.64v6.36c0 .36-.28.64-.63.64h-5.54c-.02.02-.04.05-.06.07l-1.22 1.24c.27.17.59.26.94.27h6.1c.09 0 .18-.01.26-.02.97-.13 1.71-.97 1.71-1.98v-6.8c0-1.01-.74-1.85-1.71-1.98z" fill="#607d8b"/><path d="m22.44 8.82v6.36c0 .36-.28.64-.63.64h-5.54c.47-.51.74-1.2.73-1.9-.01-.72-.31-1.41-.82-1.92.51-.5.81-1.2.82-1.92.01-.7-.26-1.39-.73-1.9h5.54c.35 0 .63.28.63.64z" fill="#eceff1"/><path d="m9.53 6.55v-1.11c0-.52-.41-.94-.91-.94h-6.24c-.5 0-.91.42-.91.94v12.56h8.06v-.55c.28.6.79 1.08 1.43 1.35.01 0 .03.01.04.01v.13c0 1.14-.9 2.06-2.02 2.06h-6.96c-1.12 0-2.02-.92-2.02-2.06v-13.88c0-1.13.9-2.06 2.02-2.06h6.96c1.12 0 2.02.93 2.02 2.06v.14c-.01 0-.03 0-.04.01-.64.26-1.15.74-1.43 1.34z" fill="#607d8b"/><path d="m7.77 7.73c-.51.53-.78 1.23-.77 1.96.02.74.32 1.42.84 1.93l.4.38-.4.38c-1.09 1.05-1.12 2.79-.07 3.89.43.44 1 .73 1.61.82.04.12.09.24.15.36v.55h-8.06v-12.56c0-.52.41-.94.91-.94h6.24c.5 0 .91.42.91.94v1.11c-.06.12-.11.24-.15.36-.61.09-1.18.38-1.61.82z" fill="#eceff1"/><path d="m12 17c-.096 0-.192-.018-.284-.056-.282-.116-.466-.39-.466-.694v-2.29l-.98.942c-.299.286-.773.277-1.061-.021-.287-.299-.277-.773.021-1.061l1.895-1.82-1.895-1.82c-.298-.287-.308-.762-.021-1.061.288-.298.763-.308 1.061-.021l.98.942v-2.29c0-.305.184-.579.466-.694.283-.115.605-.049.819.168l2.25 2.289c.141.143.218.336.215.537s-.086.391-.23.53l-1.479 1.42 1.479 1.42c.145.139.228.33.23.53s-.075.394-.215.537l-2.25 2.289c-.144.146-.338.224-.535.224zm.75-3.439v.857l.433-.441zm0-3.978v.857l.433-.416z" fill="#2196f3"/></svg>