<svg id="color" enable-background="new 0 0 24 24" height="512" viewBox="0 0 24 24" width="512" xmlns="http://www.w3.org/2000/svg"><path d="m20 2.75v18.5c0 1.52-1.23 2.75-2.75 2.75h-10.5c-1.52 0-2.75-1.23-2.75-2.75v-18.5c0-1.52 1.23-2.75 2.75-2.75h10.5c1.52 0 2.75 1.23 2.75 2.75z" fill="#607d8b"/><path d="m6 20h12v-16.75c0-.689-.561-1.25-1.25-1.25h-9.5c-.689 0-1.25.561-1.25 1.25z" fill="#eceff1"/><g fill="#2196f3"><path d="m2.251 8.25c-.229 0-.454-.104-.601-.3l-.75-1c-.249-.331-.181-.802.15-1.05.333-.249.804-.181 1.05.15l.75 1c.249.331.181.802-.15 1.05-.135.101-.293.15-.449.15z"/><path d="m1.499 13.25c-.156 0-.314-.049-.449-.15-.331-.249-.398-.719-.149-1.05l.75-1c.247-.331.717-.399 1.05-.15.331.249.398.719.149 1.05l-.75 1c-.147.196-.372.3-.601.3z"/><path d="m1.875 10.25h-1.125c-.414 0-.75-.336-.75-.75s.336-.75.75-.75h1.125c.414 0 .75.336.75.75s-.336.75-.75.75z"/><path d="m21.749 8.25c-.156 0-.314-.049-.449-.15-.331-.249-.398-.719-.149-1.05l.75-1c.246-.332.718-.399 1.05-.15.331.249.398.719.149 1.05l-.75 1c-.147.196-.372.3-.601.3z"/><path d="m22.501 13.25c-.229 0-.454-.104-.601-.3l-.75-1c-.249-.332-.182-.802.149-1.05.332-.248.804-.181 1.05.15l.75 1c.249.332.182.802-.149 1.05-.135.101-.293.15-.449.15z"/><path d="m23.25 10.25h-1.125c-.414 0-.75-.336-.75-.75s.336-.75.75-.75h1.125c.414 0 .75.336.75.75s-.336.75-.75.75z"/></g><path d="m20 6.66v1.59l-6.3 2.21c-.2.07-.41.05-.59-.04l-3.55-1.84-5.56 2.55v-1.65l5.27-2.41c.21-.1.45-.09.66.01l3.58 1.86z" fill="#607d8b"/></svg>