<svg id="color" enable-background="new 0 0 24 24" height="512" viewBox="0 0 24 24" width="512" xmlns="http://www.w3.org/2000/svg"><path d="m21 9.983v-6.966c0-1.113-.925-2.017-2.063-2.017h-11.812-.563-1.5c-1.139 0-2.062.903-2.062 2.017v6.967c0 1.113.923 2.016 2.062 2.016h1.5.563 11.812c1.138 0 2.063-.904 2.063-2.017z" fill="#607d8b"/><path d="m6 2.467v8.067h12.562c.517 0 .938-.411.938-.917v-6.234c0-.506-.42-.917-.938-.917h-12.562z" fill="#eceff1"/><path d="m22.177 18.897c-.255-1.422-1.235-2.559-2.688-3.119-1.657-.639-3.536-.377-4.904.679l-6.393 4.939c-.806.623-1.97.778-2.962.396-.786-.303-1.31-.888-1.438-1.606-.027-.152-.042-.308-.042-.468s.014-.316.042-.468c.129-.718.653-1.303 1.438-1.606.43-.165.891-.211 1.341-.181l-.133.128c-.294.283-.387.716-.234 1.094.152.378.52.626.927.626h2.921c.552 0 1-.448 1-1v-2.811c0-.401-.24-.763-.608-.92-.368-.156-.796-.078-1.085.2l-1.071 1.031c-1.18-.483-2.541-.509-3.777-.032-1.454.56-2.433 1.697-2.688 3.119-.048.27-.073.546-.073.821s.024.552.073.821c.255 1.422 1.235 2.559 2.688 3.119.601.231 1.231.345 1.855.345 1.098 0 2.177-.35 3.049-1.023l6.393-4.939c.806-.623 1.971-.778 2.962-.396.786.303 1.31.888 1.438 1.606.027.152.042.308.042.468s-.014.316-.042.468c-.129.718-.653 1.303-1.438 1.606-.993.384-2.156.228-2.962-.396-.436-.336-1.064-.257-1.403.18-.337.437-.257 1.065.18 1.403 1.367 1.056 3.247 1.317 4.904.679 1.454-.56 2.433-1.697 2.688-3.119.048-.27.073-.546.073-.821s-.024-.553-.073-.823z" fill="#2196f3"/></svg>