<svg id="color" enable-background="new 0 0 24 24" height="512" viewBox="0 0 24 24" width="512" xmlns="http://www.w3.org/2000/svg"><path d="m14 11.5v10.09c0 1.33-1 2.41-2.23 2.41h-8.54c-1.23 0-2.23-1.08-2.23-2.41v-16.18c0-1.33 1-2.41 2.23-2.41h6.04c-.58.47-1.04 1.06-1.35 1.75h-4.28c-.56 0-1.02.49-1.02 1.09v14.66h9.76v-9z" fill="#607d8b"/><path d="m12.38 11.5v9h-9.76v-14.66c0-.6.46-1.09 1.02-1.09h4.28c-.27.59-.42 1.26-.42 1.95 0 2.65 2.18 4.79 4.88 4.8z" fill="#eceff1"/><path d="m20.021 10h-7.63c-1.87 0-3.391-1.48-3.391-3.3 0-1.632 1.224-2.991 2.824-3.254.575-2.002 2.486-3.446 4.676-3.446 1.727 0 3.325.9 4.187 2.325 1.889.303 3.313 1.902 3.313 3.808 0 2.133-1.785 3.867-3.979 3.867z" fill="#2196f3"/></svg>