<svg id="color" enable-background="new 0 0 24 24" height="512" viewBox="0 0 24 24" width="512" xmlns="http://www.w3.org/2000/svg"><path d="m9.53 7.89v-2.45c0-.52-.41-.94-.91-.94h-6.24c-.5 0-.91.42-.91.94v12.56h8.06v-1.89c.2.15.43.27.66.36.14.36.34.7.63.98.06.06.12.11.18.16v1.33c0 1.14-.9 2.06-2.02 2.06h-6.96c-1.12 0-2.02-.92-2.02-2.06v-13.88c0-1.13.9-2.06 2.02-2.06h6.96c1.12 0 2.02.93 2.02 2.06v1.33c-.06.05-.12.1-.18.16-.29.28-.49.62-.63.98-.23.09-.46.21-.66.36z" fill="#607d8b"/><path d="m6.3 12c0 1.41.99 2.59 2.31 2.89.14.36.34.69.62.97.09.09.19.18.3.25v1.89h-8.06v-12.56c0-.52.41-.94.91-.94h6.24c.5 0 .91.42.91.94v2.45c-.11.08-.21.16-.3.25-.28.29-.48.62-.62.97-1.32.3-2.31 1.48-2.31 2.89z" fill="#eceff1"/><path d="m24 5.06v13.88c0 1.13-.85 2.06-1.89 2.06h-7.22c-1.04 0-1.89-.93-1.89-2.06v-.7c.5-.04.98-.22 1.38-.52v1.03c0 .41.3.75.68.75h6.88c.38 0 .68-.34.68-.75v-13.75c0-.41-.3-.75-.68-.75h-.35c-.38 0-.68.34-.68.75s-.31.75-.69.75h-3.44c-.38 0-.69-.34-.69-.75s-.3-.75-.68-.75h-.35c-.38 0-.68.34-.68.75v1.28c-.4-.3-.87-.48-1.38-.52v-.7c0-1.13.85-2.06 1.89-2.06h7.22c1.04 0 1.89.93 1.89 2.06z" fill="#607d8b"/><path d="m22.62 5v13.75c0 .41-.3.75-.68.75h-6.88c-.38 0-.68-.34-.68-.75v-1.03c.12-.08.23-.18.33-.28 1.44-1.45 2.24-3.38 2.24-5.44s-.8-3.99-2.24-5.44c-.1-.1-.21-.2-.33-.28v-1.28c0-.41.3-.75.68-.75h.35c.38 0 .68.34.68.75s.31.75.69.75h3.44c.38 0 .69-.34.69-.75s.3-.75.68-.75h.35c.38 0 .68.34.68.75z" fill="#eceff1"/><g fill="#8bc34a"><path d="m9.277 12.975c-.537 0-.974-.438-.974-.975s.437-.975.974-.975.973.437.973.975-.437.975-.973.975z"/><path d="m11.173 14.657c-.191 0-.382-.073-.529-.218-.293-.292-.295-.767-.003-1.061.367-.369.569-.858.569-1.378s-.202-1.009-.569-1.378c-.292-.294-.291-.769.003-1.061s.769-.291 1.061.003c.648.652 1.005 1.517 1.005 2.436s-.357 1.784-1.005 2.436c-.146.147-.339.221-.532.221z"/><path d="m12.756 16.25c-.191 0-.382-.073-.529-.218-.294-.292-.295-.767-.003-1.061.788-.792 1.222-1.848 1.222-2.971s-.434-2.179-1.222-2.971c-.292-.293-.291-.769.003-1.061s.769-.291 1.061.003c1.07 1.075 1.659 2.506 1.659 4.029s-.589 2.954-1.659 4.029c-.146.147-.339.221-.532.221z"/></g></svg>