<svg id="color" enable-background="new 0 0 24 24" height="512" viewBox="0 0 24 24" width="512" xmlns="http://www.w3.org/2000/svg"><path d="m20 2.75v18.5c0 1.52-1.23 2.75-2.75 2.75h-10.5c-1.52 0-2.75-1.23-2.75-2.75v-10l2-1.21 1.11-.68c.2-.12.44-.14.65-.06l3.62 1.36.69-.51-.42.09c-.17.03-.34.01-.48-.07l-3.78-1.89-1.39.25-2 .36v-6.14c0-1.52 1.23-2.75 2.75-2.75h10.5c1.52 0 2.75 1.23 2.75 2.75z" fill="#607d8b"/><path d="m18 3.25v16.75h-12v-9.96l1.11-.68c.2-.12.44-.14.65-.06l3.62 1.36.69-.51-.42.09c-.17.03-.34.01-.48-.07l-3.78-1.89-1.39.25v-5.28c0-.69.56-1.25 1.25-1.25h9.5c.69 0 1.25.56 1.25 1.25z" fill="#eceff1"/><path d="m15.69 9.35-3.75 2.75c-.2.15-.47.19-.7.1l-3.66-1.37-1.58.96-2 1.22v-1.76l2-1.21 1.11-.68c.2-.12.44-.14.65-.06l3.62 1.36.69-.51-.42.09c-.17.03-.34.01-.48-.07l-3.78-1.89-1.39.25-2 .36v-1.52l2-.36 1.37-.25c.15-.03.32 0 .46.07l3.78 1.88 3.49-.7c.35-.07.69.12.84.44.14.32.04.7-.25.9z" fill="#607d8b"/><g fill="#ffeb3b"><path d="m2.501 8.25c-.229 0-.454-.104-.601-.3l-.75-1c-.249-.331-.181-.802.15-1.05.332-.248.804-.181 1.05.15l.75 1c.249.331.181.802-.15 1.05-.135.101-.293.15-.449.15z"/><path d="m1.749 13.25c-.156 0-.314-.049-.449-.15-.331-.249-.398-.719-.149-1.05l.75-1c.246-.331.718-.399 1.05-.15.331.249.398.719.149 1.05l-.75 1c-.147.196-.372.3-.601.3z"/><path d="m2 10.25h-1.25c-.414 0-.75-.336-.75-.75s.336-.75.75-.75h1.25c.414 0 .75.336.75.75s-.336.75-.75.75z"/></g></svg>