<svg id="color" enable-background="new 0 0 24 24" height="512" viewBox="0 0 24 24" width="512" xmlns="http://www.w3.org/2000/svg"><path d="m21.25 24h-13.75c-1.517 0-2.75-1.233-2.75-2.75v-18.5c0-1.517 1.233-2.75 2.75-2.75h13.75c1.517 0 2.75 1.233 2.75 2.75v18.5c0 1.517-1.233 2.75-2.75 2.75z" fill="#546e7a"/><path d="m8 2c-.689 0-1.25.561-1.25 1.25v17.5c0 .689.561 1.25 1.25 1.25h12.75c.689 0 1.25-.561 1.25-1.25v-17.5c0-.689-.561-1.25-1.25-1.25z" fill="#eceff1"/><path d="m14.5 17.5c-.689 0-1.25.561-1.25 1.25s.561 1.25 1.25 1.25 1.25-.561 1.25-1.25-.561-1.25-1.25-1.25z" fill="#455a64"/><path d="m8.983 6h-6.966c-1.113 0-2.017.925-2.017 2.063v11.812.563 1.5c0 1.139.903 2.062 2.017 2.062h6.967c1.113 0 2.016-.923 2.016-2.062v-1.5-.563-11.812c0-1.138-.904-2.063-2.017-2.063z" fill="#607d8b"/><path d="m1.467 21h8.067v-12.562c-.001-.518-.412-.938-.917-.938h-6.234c-.506 0-.917.42-.917.938v12.562z" fill="#eceff1"/></svg>