<svg id="color" enable-background="new 0 0 24 24" height="512" viewBox="0 0 24 24" width="512" xmlns="http://www.w3.org/2000/svg"><path d="m17.25 0h-10.5c-1.517 0-2.75 1.233-2.75 2.75v1 10.5 7c0 1.517 1.233 2.75 2.75 2.75h10.5c1.517 0 2.75-1.233 2.75-2.75v-7-10.5-1c0-1.517-1.233-2.75-2.75-2.75z" fill="#607d8b"/><g fill="#eceff1"><path d="m16.75 2h-9.5c-.689 0-1.25.561-1.25 1.25v.25 10.5h12v-10.5-.25c0-.689-.561-1.25-1.25-1.25z"/><path d="m8 18c-.552 0-1-.449-1-1s.448-1 1-1 1 .449 1 1-.448 1-1 1z"/><path d="m12 18c-.552 0-1-.449-1-1s.448-1 1-1 1 .449 1 1-.448 1-1 1z"/><path d="m16 18c-.552 0-1-.449-1-1s.448-1 1-1 1 .449 1 1-.448 1-1 1z"/><path d="m8 21.5c-.552 0-1-.449-1-1s.448-1 1-1 1 .449 1 1-.448 1-1 1z"/><path d="m12 21.5c-.552 0-1-.449-1-1s.448-1 1-1 1 .449 1 1-.448 1-1 1z"/><path d="m16 21.5c-.552 0-1-.449-1-1s.448-1 1-1 1 .449 1 1-.448 1-1 1z"/></g></svg>