<svg id="color" enable-background="new 0 0 24 24" height="512" viewBox="0 0 24 24" width="512" xmlns="http://www.w3.org/2000/svg"><path d="m24 21.25v-9.5c0-1.517-1.233-2.75-2.75-2.75h-15.75-.75-2c-1.519 0-2.75 1.231-2.75 2.75v9.5c0 1.519 1.231 2.75 2.75 2.75h2 .75 15.75c1.517 0 2.75-1.233 2.75-2.75z" fill="#607d8b"/><path d="m4 11v11h16.75c.689 0 1.25-.561 1.25-1.25v-8.5c0-.689-.561-1.25-1.25-1.25z" fill="#eceff1"/><path d="m12.25 0h-9.5c-1.517 0-2.75 1.233-2.75 2.75v15.75.75 2c0 1.519 1.231 2.75 2.75 2.75h9.5c1.519 0 2.75-1.231 2.75-2.75v-2-.75-15.75c0-1.517-1.233-2.75-2.75-2.75z" fill="#607d8b"/><path d="m2 20h11v-16.75c0-.689-.561-1.25-1.25-1.25h-8.5c-.689 0-1.25.561-1.25 1.25z" fill="#eceff1"/><g fill="#2196f3"><path d="m21 7.25c-.292 0-.569-.127-.759-.349l-1.5-1.75c-.255-.296-.312-.714-.149-1.069.163-.354.517-.582.908-.582h3c.391 0 .745.228.908.582.163.355.105.772-.149 1.069l-1.5 1.75c-.19.222-.467.349-.759.349z"/><path d="m21 6.75c-.553 0-1-.448-1-1v-.75c0-1.242-.772-2.5-2.25-2.5-.553 0-1-.448-1-1s.447-1 1-1c2.423 0 4.25 1.935 4.25 4.5v.75c0 .552-.447 1-1 1z"/></g></svg>