<svg id="color" enable-background="new 0 0 24 24" height="512" viewBox="0 0 24 24" width="512" xmlns="http://www.w3.org/2000/svg"><path d="m22.363 7.228-5.591-5.591c-.893-.893-2.396-.841-3.353.116l-9.932 9.932-.473.473-1.261 1.261c-.958.958-1.009 2.459-.116 3.353l5.591 5.591c.894.894 2.395.842 3.353-.116l1.261-1.261.473-.473 9.932-9.932c.957-.957 1.009-2.46.116-3.353z" fill="#607d8b"/><path d="m3.719 13.807 6.474 6.474 10.562-10.562c.435-.435.458-1.118.053-1.524l-5.003-5.003c-.406-.406-1.089-.382-1.524.053z" fill="#eceff1"/><g fill="#2196f3"><path d="m13.836 24c-.336 0-.641-.202-.772-.513-.131-.313-.06-.674.18-.914l2.38-2.38c.167-.167.398-.257.633-.244.236.012.457.123.606.306l.882 1.079c2.697-1.433 4.555-4.265 4.581-7.504.004-.46.377-.83.836-.83h.007c.462.004.833.381.83.843-.043 5.556-4.6 10.113-10.156 10.157-.002 0-.004 0-.007 0z"/><path d="m10.164 0c.336 0 .641.202.772.513.131.313.06.674-.18.914l-2.38 2.38c-.168.167-.399.258-.634.244-.236-.012-.457-.123-.606-.306l-.882-1.079c-2.697 1.433-4.555 4.265-4.581 7.504-.004.46-.378.83-.837.83-.002 0-.004 0-.007 0-.461-.004-.832-.381-.829-.843.044-5.556 4.601-10.113 10.157-10.157z"/></g></svg>