<svg id="color" enable-background="new 0 0 24 24" height="512" viewBox="0 0 24 24" width="512" xmlns="http://www.w3.org/2000/svg"><path d="m17.25 0h-10.5c-1.517 0-2.75 1.233-2.75 2.75v15.75.75 2c0 1.519 1.231 2.75 2.75 2.75h10.5c1.519 0 2.75-1.231 2.75-2.75v-2-.75-15.75c0-1.517-1.233-2.75-2.75-2.75z" fill="#607d8b"/><path d="m6 20h12v-16.75c0-.689-.561-1.25-1.25-1.25h-9.5c-.689 0-1.25.561-1.25 1.25z" fill="#eceff1"/><g fill="#2196f3"><path d="m8.175 7.8c-.373 0-.675-.303-.675-.675v-.55c0-.868.707-1.575 1.575-1.575h.45c.373 0 .675.302.675.675s-.302.675-.675.675h-.45c-.124 0-.225.101-.225.225v.55c0 .372-.302.675-.675.675z"/><path d="m15.825 7.8c-.373 0-.675-.302-.675-.675v-.55c0-.124-.101-.225-.225-.225h-.45c-.373 0-.675-.302-.675-.675s.302-.675.675-.675h.45c.868 0 1.575.707 1.575 1.575v.55c0 .372-.302.675-.675.675z"/><path d="m14.925 14h-.45c-.373 0-.675-.302-.675-.675s.302-.675.675-.675h.45c.124 0 .225-.101.225-.225v-.425c0-.373.302-.675.675-.675s.675.302.675.675v.425c0 .868-.707 1.575-1.575 1.575z"/><path d="m9.525 14h-.45c-.868 0-1.575-.707-1.575-1.575v-.45c0-.373.302-.675.675-.675s.675.302.675.675v.45c0 .124.101.225.225.225h.45c.373 0 .675.302.675.675s-.302.675-.675.675z"/><path d="m15.075 10.175h-6.15c-.373 0-.675-.302-.675-.675s.302-.675.675-.675h6.15c.373 0 .675.302.675.675s-.302.675-.675.675z"/></g></svg>