<svg id="color" enable-background="new 0 0 24 24" height="512" viewBox="0 0 24 24" width="512" xmlns="http://www.w3.org/2000/svg"><path d="m22.29 6.62-.21-2.2c-.08-.81-.75-1.42-1.55-1.42h-2.84c-.8 0-1.47.61-1.54 1.42l-.21 2.05c.1-.02.21-.03.31-.03.28 0 .56.05.82.16.02.01.03.01.05.02.6.25 1.05.74 1.25 1.33h3.32c.19 0 .37-.08.49-.22.13-.14.19-.33.17-.52z" fill="#455a64"/><path d="m22.18 16.27c-.12-.14-.3-.22-.49-.22h-4.55c-.36.45-.77.84-1.23 1.18l.02.17.22 2.18c.07.81.74 1.42 1.54 1.42h2.84c.8 0 1.47-.61 1.55-1.42l.21-2.2.06-.59c.02-.19-.04-.38-.17-.52z" fill="#455a64"/><path d="m22.29 6.62c-.08-.01-.17-.02-.26-.02h-4.96c.02.01.03.01.05.02.6.25 1.05.74 1.25 1.33.03.07.05.15.07.23h3.37c.35 0 .63.28.63.64v6.36c0 .36-.28.64-.63.64h-4.5c-.06.08-.12.16-.17.23-.36.45-.77.84-1.23 1.18-.07.06-.14.11-.22.15.08.01.16.02.24.02h6.1c.09 0 .18-.01.26-.02.97-.13 1.71-.97 1.71-1.98v-6.8c0-1.01-.74-1.85-1.71-1.98z" fill="#607d8b"/><path d="m22.44 8.82v6.36c0 .36-.28.64-.63.64h-4.5c.64-.88 1.06-1.94 1.18-3.1.04-.42-.04-.83-.21-1.18.14-.29.22-.61.22-.96v-1.89c0-.17-.02-.34-.06-.51h3.37c.35 0 .63.28.63.64z" fill="#eceff1"/><path d="m9.53 5.97v-.53c0-.52-.41-.94-.91-.94h-6.24c-.5 0-.91.42-.91.94v12.56h8.06v-.02c.47.21.96.35 1.47.43v.53c0 1.14-.9 2.06-2.02 2.06h-6.96c-1.12 0-2.02-.92-2.02-2.06v-13.88c0-1.13.9-2.06 2.02-2.06h6.96c1.12 0 2.02.93 2.02 2.06v.51c-.51.07-1 .21-1.47.4z" fill="#607d8b"/><path d="m5.51 11.28c-.04.42.04.83.21 1.18-.14.29-.22.61-.22.96v1.89c0 .91.54 1.72 1.39 2.07.27.12.56.18.86.18.26 0 .5-.05.74-.13.33.22.68.4 1.04.55v.02h-8.06v-12.56c0-.52.41-.94.91-.94h6.24c.5 0 .91.42.91.94v.53c-2.16.86-3.76 2.86-4.02 5.31z" fill="#eceff1"/><g fill="#2196f3"><path d="m16.25 11.333h-1.889c-.304 0-.577-.183-.693-.463-.115-.28-.052-.603.163-.817l1.889-1.889c.214-.215.538-.28.817-.163.28.117.463.39.463.693v1.889c0 .415-.336.75-.75.75z"/><path d="m7.751 12.267c-.026 0-.053-.001-.08-.004-.412-.043-.71-.413-.667-.825.268-2.53 2.393-4.438 4.943-4.438 1.139 0 2.238.386 3.098 1.087.719.564 1.267 1.331 1.574 2.207.137.391-.069.819-.46.956-.392.135-.819-.069-.956-.46-.212-.606-.591-1.136-1.095-1.532-.603-.492-1.367-.758-2.161-.758-1.78 0-3.265 1.331-3.451 3.096-.041.384-.366.671-.745.671z"/><path d="m12.053 17c-1.139 0-2.238-.386-3.098-1.087-.719-.564-1.267-1.331-1.574-2.207-.137-.391.069-.819.46-.956.391-.136.819.069.956.46.212.606.591 1.136 1.095 1.532.604.492 1.367.758 2.161.758 1.78 0 3.265-1.331 3.451-3.096.044-.411.41-.707.825-.667.412.043.71.413.667.825-.268 2.53-2.393 4.438-4.943 4.438z"/><path d="m7.75 16.056c-.097 0-.194-.019-.287-.057-.28-.117-.463-.39-.463-.693v-1.889c0-.414.336-.75.75-.75h1.889c.304 0 .577.183.693.463.115.28.052.603-.163.817l-1.889 1.889c-.143.143-.335.22-.53.22z"/></g></svg>