<svg id="color" enable-background="new 0 0 24 24" height="512" viewBox="0 0 24 24" width="512" xmlns="http://www.w3.org/2000/svg"><path d="m24 5.06v13.88c0 1.13-.85 2.06-1.89 2.06h-7.22c-1.04 0-1.89-.93-1.89-2.06v-5.44h.82c.09.43.28.82.56 1.14v4.11c0 .41.3.75.68.75h6.88c.38 0 .68-.34.68-.75v-13.75c0-.41-.3-.75-.68-.75h-.35c-.38 0-.68.34-.68.75s-.31.75-.69.75h-3.44c-.38 0-.69-.34-.69-.75s-.3-.75-.68-.75h-.35c-.38 0-.68.34-.68.75v2.35c-.27.32-.47.72-.56 1.15h-.82v-3.44c0-1.13.85-2.06 1.89-2.06h7.22c1.04 0 1.89.93 1.89 2.06z" fill="#607d8b"/><path d="m22.62 5v13.75c0 .41-.3.75-.68.75h-6.88c-.38 0-.68-.34-.68-.75v-4.11c.24.29.55.52.91.67.3.13.63.19.96.19.66 0 1.28-.26 1.75-.72l2.03-2c.48-.47.75-1.11.75-1.78s-.27-1.31-.75-1.78l-2.03-2c-.47-.46-1.09-.72-1.75-.72-.33 0-.66.06-.97.19-.35.15-.66.38-.9.66v-2.35c0-.41.3-.75.68-.75h.35c.38 0 .68.34.68.75s.31.75.69.75h3.44c.38 0 .69-.34.69-.75s.3-.75.68-.75h.35c.38 0 .68.34.68.75z" fill="#eceff1"/><path d="m9.53 8.5v-3.06c0-.52-.41-.94-.91-.94h-6.24c-.5 0-.91.42-.91.94v12.56h8.06v-4.5h1.47v5.44c0 1.14-.9 2.06-2.02 2.06h-6.96c-1.12 0-2.02-.92-2.02-2.06v-13.88c0-1.13.9-2.06 2.02-2.06h6.96c1.12 0 2.02.93 2.02 2.06v3.44z" fill="#607d8b"/><path d="m2.5 11c0 1.38 1.12 2.5 2.5 2.5h1c.51 0 .98-.15 1.38-.42.39.27.86.42 1.37.42h.78v4.5h-8.06v-12.56c0-.52.41-.94.91-.94h6.24c.5 0 .91.42.91.94v3.06h-.78c-.51 0-.98.15-1.37.42-.4-.27-.87-.42-1.38-.42h-1c-1.38 0-2.5 1.12-2.5 2.5z" fill="#eceff1"/><g fill="#2196f3"><path d="m15.75 12h-7c-.552 0-1-.448-1-1s.448-1 1-1h7c.552 0 1 .448 1 1s-.448 1-1 1z"/><path d="m16.25 14c-.13 0-.261-.025-.386-.078-.372-.155-.614-.519-.614-.922v-4c0-.403.242-.767.614-.922s.8-.073 1.088.21l2.03 2c.191.188.298.445.298.712s-.107.524-.298.712l-2.03 2c-.191.188-.445.288-.702.288z"/><path d="m6 12h-1c-.552 0-1-.448-1-1s.448-1 1-1h1c.552 0 1 .448 1 1s-.448 1-1 1z"/></g></svg>