<svg id="color" enable-background="new 0 0 24 24" height="512" viewBox="0 0 24 24" width="512" xmlns="http://www.w3.org/2000/svg"><path d="m15.483 2h-6.966c-1.113 0-2.017.925-2.017 2.063v11.812.563 1.5c0 1.139.903 2.062 2.017 2.062h6.967c1.114 0 2.017-.923 2.017-2.062v-1.5-.563-11.812c-.001-1.138-.905-2.063-2.018-2.063z" fill="#607d8b"/><path d="m7.967 17h8.067v-12.562c0-.517-.411-.938-.917-.938h-6.234c-.506 0-.917.42-.917.938v12.562z" fill="#eceff1"/><g fill="#2196f3"><path d="m3.5 22.25c-.238 0-.478-.084-.669-.257l-2.5-2.25c-.204-.183-.323-.443-.331-.717-.007-.274.099-.54.293-.733l1.793-1.793-1.793-1.793c-.391-.391-.391-1.023 0-1.414l1.793-1.793-1.793-1.793c-.391-.391-.391-1.023 0-1.414l1.793-1.793-1.793-1.793c-.194-.194-.3-.459-.293-.733.008-.274.127-.534.331-.717l2.5-2.25c.411-.37 1.042-.336 1.412.074.369.411.336 1.043-.074 1.412l-1.717 1.545 1.755 1.755c.391.391.391 1.023 0 1.414l-1.793 1.793 1.793 1.793c.391.391.391 1.023 0 1.414l-1.793 1.793 1.793 1.793c.391.391.391 1.023 0 1.414l-1.755 1.755 1.717 1.545c.41.369.443 1.001.074 1.412-.197.219-.47.331-.743.331z"/><path d="m20.5 22.25c-.273 0-.546-.112-.743-.331-.369-.411-.336-1.043.074-1.412l1.717-1.545-1.755-1.755c-.391-.391-.391-1.023 0-1.414l1.793-1.793-1.793-1.793c-.391-.391-.391-1.023 0-1.414l1.793-1.793-1.793-1.793c-.391-.391-.391-1.023 0-1.414l1.755-1.755-1.717-1.545c-.41-.369-.443-1.001-.074-1.412.37-.41 1.002-.444 1.412-.074l2.5 2.25c.204.183.323.443.331.717.007.274-.099.54-.293.733l-1.793 1.793 1.793 1.793c.391.391.391 1.023 0 1.414l-1.793 1.793 1.793 1.793c.391.391.391 1.023 0 1.414l-1.793 1.793 1.793 1.793c.194.194.3.459.293.733-.008.274-.127.533-.331.717l-2.5 2.25c-.191.172-.431.257-.669.257z"/></g></svg>