<svg id="color" enable-background="new 0 0 24 24" height="512" viewBox="0 0 24 24" width="512" xmlns="http://www.w3.org/2000/svg"><path d="m17.25 24h-10.5c-1.517 0-2.75-1.233-2.75-2.75v-18.5c0-1.517 1.233-2.75 2.75-2.75h10.5c1.517 0 2.75 1.233 2.75 2.75v18.5c0 1.517-1.233 2.75-2.75 2.75z" fill="#607d8b"/><path d="m15.75 11.25h-7.5c-.966 0-1.75-.784-1.75-1.75v-5.25c0-.966.784-1.75 1.75-1.75h7.5c.966 0 1.75.784 1.75 1.75v5.25c0 .966-.784 1.75-1.75 1.75z" fill="#eceff1"/><path d="m12 21c-1.93 0-3.5-1.57-3.5-3.5s1.57-3.5 3.5-3.5 3.5 1.57 3.5 3.5-1.57 3.5-3.5 3.5z" fill="#455a64"/></svg>