<svg id="color" enable-background="new 0 0 24 24" height="512" viewBox="0 0 24 24" width="512" xmlns="http://www.w3.org/2000/svg"><path d="m23.903 11.631c-2.698-4.778-7.148-7.631-11.903-7.631s-9.205 2.853-11.903 7.631c-.129.229-.129.508 0 .737 2.698 4.779 7.148 7.632 11.903 7.632s9.205-2.853 11.903-7.631c.129-.229.129-.509 0-.738zm-11.903 5.369c-2.757 0-5-2.243-5-5s2.243-5 5-5 5 2.243 5 5-2.243 5-5 5z" fill="#2196f3"/><g fill="#4caf50"><path d="m12 15c-.414 0-.75-.336-.75-.75v-4.5c0-.414.336-.75.75-.75s.75.336.75.75v4.5c0 .414-.336.75-.75.75z"/><path d="m14.25 12.75h-4.5c-.414 0-.75-.336-.75-.75s.336-.75.75-.75h4.5c.414 0 .75.336.75.75s-.336.75-.75.75z"/></g></svg>