<svg id="color" enable-background="new 0 0 24 24" height="512" viewBox="0 0 24 24" width="512" xmlns="http://www.w3.org/2000/svg"><path d="m22.064 13.659c-1.32.845-2.884 1.341-4.564 1.341-1.298 0-2.524-.301-3.626-.824.681.551 1.126 1.382 1.126 2.324 0 1.654-1.346 3-3 3s-3-1.346-3-3 1.346-3 3-3c.335 0 .653.068.954.17-1.612-1.026-2.854-2.576-3.486-4.412-3.761.763-7.147 3.204-9.359 6.854-.145.239-.145.539 0 .777 2.7 4.453 7.145 7.111 11.891 7.111s9.191-2.658 11.891-7.111c.145-.239.145-.539 0-.777-.542-.894-1.156-1.711-1.827-2.453z" fill="#2196f3"/><path d="m17.5 0c-3.584 0-6.5 2.916-6.5 6.5s2.916 6.5 6.5 6.5 6.5-2.916 6.5-6.5-2.916-6.5-6.5-6.5zm2.401 7.841c.293.293.293.768 0 1.061-.146.146-.338.22-.53.22s-.384-.073-.53-.22l-1.341-1.341-1.341 1.341c-.146.146-.338.22-.53.22s-.384-.073-.53-.22c-.293-.293-.293-.768 0-1.061l1.34-1.341-1.341-1.341c-.293-.293-.293-.768 0-1.061s.768-.293 1.061 0l1.341 1.341 1.341-1.341c.293-.293.768-.293 1.061 0s.293.768 0 1.061l-1.341 1.341z" fill="#ffc107"/></svg>