<svg id="color" enable-background="new 0 0 24 24" height="512" viewBox="0 0 24 24" width="512" xmlns="http://www.w3.org/2000/svg"><path d="m23.903 11.631c-2.698-4.778-7.148-7.631-11.903-7.631s-9.205 2.853-11.903 7.631c-.129.229-.129.508 0 .737 2.698 4.779 7.148 7.632 11.903 7.632s9.205-2.853 11.903-7.631c.129-.229.129-.509 0-.738zm-11.903 4.369c-2.206 0-4-1.794-4-4s1.794-4 4-4 4 1.794 4 4-1.794 4-4 4z" fill="#2196f3"/><g fill="#607d8b"><path d="m23 8c-.552 0-1-.448-1-1v-4c0-.551-.449-1-1-1h-4c-.552 0-1-.448-1-1s.448-1 1-1h4c1.654 0 3 1.346 3 3v4c0 .552-.448 1-1 1z"/><path d="m1 8c-.552 0-1-.448-1-1v-4c0-1.654 1.346-3 3-3h4c.552 0 1 .448 1 1s-.448 1-1 1h-4c-.551 0-1 .449-1 1v4c0 .552-.448 1-1 1z"/><path d="m21 24h-4c-.552 0-1-.448-1-1s.448-1 1-1h4c.551 0 1-.449 1-1v-4c0-.552.448-1 1-1s1 .448 1 1v4c0 1.654-1.346 3-3 3z"/><path d="m7 24h-4c-1.654 0-3-1.346-3-3v-4c0-.552.448-1 1-1s1 .448 1 1v4c0 .551.449 1 1 1h4c.552 0 1 .448 1 1s-.448 1-1 1z"/></g></svg>