<svg id="color" enable-background="new 0 0 24 24" height="512" viewBox="0 0 24 24" width="512" xmlns="http://www.w3.org/2000/svg"><path d="m22.221 13.83c-1.09.903-2.23 1.561-3.145 1.951-.346.146-.706.219-1.076.219s-.73-.073-1.071-.217c-2.103-.895-5.386-3.175-6.523-6.678-4.133.523-7.902 3.056-10.297 7.006-.145.239-.145.539 0 .777 2.7 4.454 7.145 7.112 11.891 7.112s9.191-2.658 11.891-7.111c.145-.239.145-.539 0-.777-.5-.825-1.06-1.586-1.67-2.282zm-10.221 5.67c-1.654 0-3-1.346-3-3s1.346-3 3-3 3 1.346 3 3-1.346 3-3 3z" fill="#2196f3"/><path d="m23.492 1.826-5.25-1.786c-.157-.054-.326-.054-.483 0l-5.25 1.786c-.304.103-.509.388-.509.71v4.018c0 4.904 5.474 7.288 5.707 7.387.093.039.193.059.293.059s.2-.02.293-.06c.233-.099 5.707-2.482 5.707-7.386v-4.018c0-.322-.205-.607-.508-.71zm-2.142 3.374-3 4c-.13.174-.33.283-.547.298-.018.002-.035.002-.053.002-.198 0-.389-.079-.53-.22l-2-2c-.293-.293-.293-.768 0-1.061s.768-.293 1.061 0l1.389 1.389 2.48-3.308c.249-.33.719-.397 1.05-.15.331.248.399.719.15 1.05z" fill="#4caf50"/></svg>