<svg id="color" enable-background="new 0 0 24 24" height="512" viewBox="0 0 24 24" width="512" xmlns="http://www.w3.org/2000/svg"><path d="m22 17.5c-2 0-6 2.531-8 2.531s-4.25-1.531-4.25-1.531 2.694.5 4.25.5 2-.531 2-1.25c0-1.75-2.972-2.022-4.476-2.251-1.476-.822-3.037-1.333-5.482-1.539-.014.142-.037.284-.077.425l-2.009 7.08c2.276 1.035 6.988 2.535 9.044 2.535 3 0 11-4 11-5s-1-1.5-2-1.5z" fill="#ffcc80"/><path d="m3.5 22h-2.75c-.414 0-.75-.336-.75-.75v-8.5c0-.414.336-.75.75-.75 3.505 0 5.138 1.216 5.205 1.268.242.185.349.498.269.792l-2 7.386c-.089.327-.385.554-.724.554z" fill="#2196f3"/><path d="m22.281 0h-.781-5-.781c-.948 0-1.719.771-1.719 1.719v11.562c0 .948.771 1.719 1.719 1.719h6.562c.948 0 1.719-.771 1.719-1.719v-11.562c0-.948-.771-1.719-1.719-1.719z" fill="#607d8b"/><path d="m22.75 13.125c0 .345-.28.625-.625.625h-6.25c-.345 0-.625-.28-.625-.625v-11.25c0-.345.28-.625.625-.625h.313c.345 0 .625.28.625.625 0 .345.28.625.625.625h3.125c.345 0 .625-.28.625-.625 0-.345.28-.625.625-.625h.313c.345 0 .625.28.625.625v11.25z" fill="#eceff1"/></svg>