<svg id="color" enable-background="new 0 0 24 24" height="512" viewBox="0 0 24 24" width="512" xmlns="http://www.w3.org/2000/svg"><path d="m9.62 6.37v-1.37c0-.41-.3-.75-.68-.75h-.35c-.38 0-.68.34-.68.75s-.31.75-.69.75h-3.44c-.38 0-.69-.34-.69-.75s-.3-.75-.68-.75h-.35c-.38 0-.68.34-.68.75v13.75c0 .41.3.75.68.75h6.88c.38 0 .68-.34.68-.75v-1.12c.3.52.76.93 1.34 1.17.01 0 .03.01.04.01v.13c0 1.13-.85 2.06-1.89 2.06h-7.22c-1.04 0-1.89-.93-1.89-2.06v-13.88c0-1.13.85-2.06 1.89-2.06h7.22c1.04 0 1.89.93 1.89 2.06v.14c-.01 0-.03 0-.04.01-.58.23-1.04.65-1.34 1.16z" fill="#607d8b"/><path d="m7.77 7.73c-.51.53-.78 1.23-.77 1.96.02.74.32 1.42.84 1.93l.4.38-.4.38c-1.09 1.05-1.12 2.79-.07 3.89.43.44 1 .73 1.61.82.06.19.14.37.24.54v1.12c0 .41-.3.75-.68.75h-6.88c-.38 0-.68-.34-.68-.75v-13.75c0-.41.3-.75.68-.75h.35c.38 0 .68.34.68.75s.31.75.69.75h3.44c.38 0 .69-.34.69-.75s.3-.75.68-.75h.35c.38 0 .68.34.68.75v1.37c-.1.17-.18.35-.24.54-.61.09-1.18.38-1.61.82z" fill="#eceff1"/><path d="m21.689 7.95h-5.156c-.188 0-.368-.081-.494-.222-.127-.142-.188-.33-.169-.52l.276-2.79c.079-.808.745-1.418 1.548-1.418h2.835c.803 0 1.468.61 1.548 1.418l.276 2.79c.019.19-.043.379-.169.52-.127.141-.306.222-.495.222z" fill="#455a64"/><path d="m20.529 21h-2.835c-.803 0-1.469-.61-1.548-1.419l-.276-2.789c-.019-.19.043-.379.169-.52s.306-.222.494-.222h5.156c.188 0 .368.081.494.222.127.142.188.33.169.52l-.276 2.79c-.079.808-.744 1.418-1.547 1.418z" fill="#455a64"/><path d="m22.03 6.6h-6.06c-.36 0-.7.09-.98.27l1.22 1.24c.02.02.04.05.06.07h5.54c.35 0 .63.28.63.64v6.36c0 .36-.28.64-.63.64h-5.54c-.02.02-.04.05-.06.07l-1.22 1.24c.28.18.62.27.98.27h6.06c1.09 0 1.97-.9 1.97-2v-6.8c0-1.1-.88-2-1.97-2z" fill="#607d8b"/><path d="m22.44 8.82v6.36c0 .36-.28.64-.63.64h-5.54c.47-.51.74-1.2.73-1.9-.01-.72-.31-1.41-.82-1.92.51-.5.81-1.2.82-1.92.01-.7-.26-1.39-.73-1.9h5.54c.35 0 .63.28.63.64z" fill="#eceff1"/><path d="m12 17c-.096 0-.192-.018-.284-.056-.282-.116-.466-.39-.466-.694v-2.29l-.98.942c-.299.286-.773.277-1.061-.021-.287-.299-.277-.773.021-1.061l1.895-1.82-1.895-1.82c-.298-.287-.308-.762-.021-1.061.288-.298.763-.308 1.061-.021l.98.942v-2.29c0-.305.184-.579.466-.694.283-.115.605-.049.819.168l2.25 2.289c.141.143.218.336.215.537s-.086.391-.23.53l-1.479 1.42 1.479 1.42c.145.139.228.33.23.53s-.075.394-.215.537l-2.25 2.289c-.144.146-.338.224-.535.224zm.75-3.439v.857l.433-.441zm0-3.978v.857l.433-.416z" fill="#2196f3"/></svg>