<svg id="color" enable-background="new 0 0 24 24" height="512" viewBox="0 0 24 24" width="512" xmlns="http://www.w3.org/2000/svg"><path d="m21 10.109v-.859-5.5-.859c0-1.043-.925-1.891-2.063-1.891h-13.875c-1.137 0-2.062.848-2.062 1.891v7.219c0 1.042.925 1.89 2.062 1.89h13.875c1.138 0 2.063-.848 2.063-1.891z" fill="#607d8b"/><path d="m5.25 10.625c-.414 0-.75-.308-.75-.688v-6.875c0-.38.336-.688.75-.688h13.75c.414 0 .75.308.75.688v.344c0 .38-.336.687-.75.687-.414 0-.75.308-.75.688v3.438c0 .38.336.688.75.688.414 0 .75.308.75.687v.344c0 .38-.336.688-.75.688h-13.75z" fill="#eceff1"/><path d="m22.177 18.897c-.255-1.422-1.235-2.559-2.688-3.119-1.657-.639-3.536-.377-4.904.679l-6.393 4.939c-.806.623-1.97.778-2.962.396-.786-.303-1.31-.888-1.438-1.606-.027-.152-.042-.308-.042-.468s.014-.316.042-.468c.129-.718.653-1.303 1.438-1.606.43-.165.891-.211 1.341-.181l-.133.128c-.294.283-.387.716-.234 1.094.152.378.52.626.927.626h2.921c.552 0 1-.448 1-1v-2.811c0-.401-.24-.763-.608-.92-.368-.156-.796-.078-1.085.2l-1.071 1.031c-1.18-.483-2.541-.509-3.777-.032-1.454.56-2.433 1.697-2.688 3.119-.048.27-.073.546-.073.821s.024.552.073.821c.255 1.422 1.235 2.559 2.688 3.119.601.231 1.231.345 1.855.345 1.098 0 2.177-.35 3.049-1.023l6.393-4.939c.806-.623 1.971-.778 2.962-.396.786.303 1.31.888 1.438 1.606.027.152.042.308.042.468s-.014.316-.042.468c-.129.718-.653 1.303-1.438 1.606-.993.384-2.156.228-2.962-.396-.436-.336-1.064-.257-1.403.18-.337.437-.257 1.065.18 1.403 1.367 1.056 3.247 1.317 4.904.679 1.454-.56 2.433-1.697 2.688-3.119.048-.27.073-.546.073-.821s-.024-.553-.073-.823z" fill="#2196f3"/></svg>