<svg id="color" enable-background="new 0 0 24 24" height="512" viewBox="0 0 24 24" width="512" xmlns="http://www.w3.org/2000/svg"><path d="m14 11.5v10.09c0 1.33-1 2.41-2.23 2.41h-8.54c-1.23 0-2.23-1.08-2.23-2.41v-16.18c0-1.33 1-2.41 2.23-2.41h6.04c-1.04.84-1.71 2.1-1.76 3.5h-2.04c-.45 0-.81-.39-.81-.88 0-.48-.37-.87-.82-.87h-.4c-.45 0-.82.39-.82.87v15.76c0 .48.37.87.82.87h8.12c.45 0 .82-.39.82-.87v-9.88z" fill="#607d8b"/><path d="m12.38 11.5v9.88c0 .48-.37.87-.82.87h-8.12c-.45 0-.82-.39-.82-.87v-15.76c0-.48.37-.87.82-.87h.4c.45 0 .82.39.82.87 0 .49.36.88.81.88h2.04c-.01.07-.01.13-.01.2 0 2.65 2.18 4.79 4.88 4.8z" fill="#eceff1"/><path d="m20.021 10h-7.63c-1.87 0-3.391-1.48-3.391-3.3 0-1.632 1.224-2.991 2.824-3.254.575-2.002 2.486-3.446 4.676-3.446 1.727 0 3.325.9 4.187 2.325 1.889.303 3.313 1.902 3.313 3.808 0 2.133-1.785 3.867-3.979 3.867z" fill="#2196f3"/></svg>