<svg id="color" enable-background="new 0 0 24 24" height="512" viewBox="0 0 24 24" width="512" xmlns="http://www.w3.org/2000/svg"><path d="m9.109 6h-.859-5.5-.859c-1.043 0-1.891.925-1.891 2.063v13.875c0 1.137.848 2.062 1.891 2.062h7.219c1.042 0 1.89-.925 1.89-2.062v-13.875c0-1.138-.848-2.063-1.891-2.063z" fill="#607d8b"/><path d="m9.625 21.75c0 .414-.308.75-.688.75h-6.875c-.38 0-.687-.336-.687-.75v-13.75c0-.414.308-.75.687-.75h.344c.38 0 .687.336.687.75 0 .414.308.75.688.75h3.438c.38 0 .688-.336.688-.75 0-.414.308-.75.687-.75h.344c.38 0 .688.336.688.75v13.75z" fill="#eceff1"/><path d="m21.983 0h-6.967c-1.112 0-2.016.925-2.016 2.063v11.812.563 1.5c0 1.139.903 2.062 2.017 2.062h6.967c1.113 0 2.016-.923 2.016-2.062v-1.5-.563-11.812c0-1.138-.904-2.063-2.017-2.063z" fill="#607d8b"/><path d="m14.467 15h8.067v-12.562c0-.517-.411-.938-.917-.938h-6.233c-.506 0-.917.42-.917.938z" fill="#eceff1"/><g fill="#2196f3"><path d="m7.583 5.5c-.254 0-.507-.096-.701-.288l-1.333-1.312c-.29-.285-.378-.716-.225-1.091.154-.376.52-.621.926-.621h2.667c.406 0 .771.246.926.621.153.375.064.807-.225 1.091l-1.334 1.313c-.194.191-.448.287-.701.287z"/><path d="m7.583 4.75c-.553 0-1-.448-1-1v-1c0-1.517 1.246-2.75 2.778-2.75h.889c.553 0 1 .448 1 1s-.447 1-1 1h-.889c-.428 0-.778.336-.778.75v1c0 .552-.447 1-1 1z"/><path d="m17.75 21.812h-2.667c-.406 0-.771-.246-.926-.621-.153-.375-.064-.807.225-1.092l1.334-1.312c.39-.383 1.015-.383 1.402 0l1.333 1.312c.29.285.378.716.225 1.091-.155.377-.52.622-.926.622z"/><path d="m14.639 24h-.889c-.553 0-1-.448-1-1s.447-1 1-1h.889c.429 0 .778-.336.778-.75v-1.25c0-.552.447-1 1-1s1 .448 1 1v1.25c0 1.517-1.246 2.75-2.778 2.75z"/></g></svg>