<svg id="color" enable-background="new 0 0 24 24" height="512" viewBox="0 0 24 24" width="512" xmlns="http://www.w3.org/2000/svg"><path d="m21.25 24h-13.75c-1.517 0-2.75-1.233-2.75-2.75v-18.5c0-1.517 1.233-2.75 2.75-2.75h13.75c1.517 0 2.75 1.233 2.75 2.75v18.5c0 1.517-1.233 2.75-2.75 2.75z" fill="#546e7a"/><path d="m8 2c-.689 0-1.25.561-1.25 1.25v17.5c0 .689.561 1.25 1.25 1.25h12.75c.689 0 1.25-.561 1.25-1.25v-17.5c0-.689-.561-1.25-1.25-1.25z" fill="#eceff1"/><path d="m14.5 17.5c-.689 0-1.25.561-1.25 1.25s.561 1.25 1.25 1.25 1.25-.561 1.25-1.25-.561-1.25-1.25-1.25z" fill="#455a64"/><path d="m9.109 6h-.859-5.5-.859c-1.043 0-1.891.925-1.891 2.063v13.875c0 1.137.848 2.062 1.891 2.062h7.219c1.042 0 1.89-.925 1.89-2.062v-13.875c0-1.138-.848-2.063-1.891-2.063z" fill="#607d8b"/><path d="m9.625 21.75c0 .414-.308.75-.688.75h-6.875c-.38 0-.687-.336-.687-.75v-13.75c0-.414.308-.75.687-.75h.344c.38 0 .687.336.687.75 0 .414.308.75.688.75h3.438c.38 0 .688-.336.688-.75 0-.414.308-.75.687-.75h.344c.38 0 .688.336.688.75v13.75z" fill="#eceff1"/></svg>