<svg id="color" enable-background="new 0 0 24 24" height="512" viewBox="0 0 24 24" width="512" xmlns="http://www.w3.org/2000/svg"><path d="m15.609 0h-.859-5.5-.859c-1.043 0-1.891.925-1.891 2.063v13.875c0 1.137.848 2.062 1.891 2.062h7.219c1.043 0 1.891-.925 1.891-2.062v-13.875c-.001-1.138-.849-2.063-1.892-2.063z" fill="#607d8b"/><path d="m16.125 15.75c0 .414-.308.75-.688.75h-6.875c-.38 0-.687-.336-.687-.75v-13.75c0-.414.308-.75.687-.75h.344c.38 0 .687.336.687.75 0 .414.308.75.688.75h3.438c.38 0 .688-.336.688-.75 0-.414.308-.75.687-.75h.344c.38 0 .688.336.688.75v13.75z" fill="#eceff1"/><g fill="#2196f3"><path d="m11.013 20.129c-5.359-.223-9.013-2.238-9.013-4.059 0-.452.227-.914.673-1.373.385-.396.376-1.029-.02-1.414s-1.029-.376-1.414.02c-.81.833-1.239 1.79-1.239 2.767 0 3.298 4.671 5.819 11.013 6.058z"/><path d="m14.425 22.028c-.506 0-.94-.382-.994-.896-.057-.549.343-1.041.892-1.098 4.805-.5 7.677-2.408 7.677-3.964 0-.459-.225-.919-.667-1.367-.389-.393-.385-1.026.008-1.415.394-.388 1.026-.384 1.414.008.814.825 1.245 1.784 1.245 2.774 0 2.972-3.806 5.364-9.471 5.953-.035.003-.07.005-.104.005z"/><path d="m9.608 24c-.15 0-.301-.034-.44-.103-.343-.168-.56-.516-.56-.897v-3.696c0-.381.217-.729.56-.897.341-.168.749-.128 1.052.106l2.392 1.848c.244.189.388.481.388.791s-.144.602-.389.792l-2.392 1.848c-.178.137-.394.208-.611.208z"/></g></svg>