<svg id="color" enable-background="new 0 0 24 24" height="512" viewBox="0 0 24 24" width="512" xmlns="http://www.w3.org/2000/svg"><path d="m15.609 3h-.859-5.5-.859c-1.043 0-1.891.925-1.891 2.063v13.875c0 1.137.848 2.062 1.891 2.062h7.219c1.043 0 1.891-.925 1.891-2.062v-13.875c-.001-1.138-.849-2.063-1.892-2.063z" fill="#607d8b"/><path d="m16.125 18.75c0 .414-.308.75-.688.75h-6.875c-.38 0-.687-.336-.687-.75v-13.75c0-.414.308-.75.687-.75h.344c.38 0 .687.336.687.75 0 .414.308.75.688.75h3.438c.38 0 .688-.336.688-.75 0-.414.308-.75.687-.75h.344c.38 0 .688.336.688.75v13.75z" fill="#eceff1"/><g fill="#f44336"><path d="m21.16 4.26c-.21-.26-.43-.5-.67-.74s-.48-.46-.73-.68c-2.16-1.84-4.88-2.84-7.75-2.84-.01 0-.01 0-.01 0-6.61 0-12 5.38-12 11.99 0 2.88 1 5.59 2.84 7.75.21.26.43.5.67.74s.48.46.73.68c2.16 1.84 4.88 2.84 7.75 2.84h.01c6.61 0 12-5.38 12-11.99 0-2.88-1-5.59-2.84-7.75zm-9.16 18.24s0 0-.01 0c-2.46 0-4.8-.85-6.68-2.41-.25-.21-.5-.43-.74-.67s-.46-.49-.67-.75c-1.56-1.88-2.4-4.21-2.4-6.68 0-5.78 4.71-10.49 10.5-10.49h.01c2.46 0 4.8.85 6.68 2.41.25.21.5.43.74.67s.46.49.67.75c1.56 1.88 2.4 4.21 2.4 6.68 0 5.78-4.71 10.49-10.5 10.49z"/><path d="m21.16 4.26-1.06 1.07-14.79 14.76-1.07 1.07c-.25-.22-.49-.44-.73-.68s-.46-.48-.67-.74l1.06-1.07 14.79-14.76 1.07-1.07c.25.22.49.44.73.68s.46.48.67.74z"/></g></svg>