<svg id="color" enable-background="new 0 0 24 24" height="512" viewBox="0 0 24 24" width="512" xmlns="http://www.w3.org/2000/svg"><path d="m17.25 0h-1.25-8-1.25c-1.517 0-2.75 1.233-2.75 2.75v18.5c0 1.517 1.233 2.75 2.75 2.75h10.5c1.517 0 2.75-1.233 2.75-2.75v-18.5c0-1.517-1.233-2.75-2.75-2.75z" fill="#607d8b"/><path d="m18 21c0 .552-.448 1-1 1h-10c-.552 0-1-.448-1-1v-18c0-.552.448-1 1-1h.5c.552 0 1 .448 1 1 0 .552.448 1 1 1h5c.552 0 1-.448 1-1 0-.552.448-1 1-1h.5c.552 0 1 .448 1 1z" fill="#eceff1"/></svg>