<svg id="color" enable-background="new 0 0 24 24" height="512" viewBox="0 0 24 24" width="512" xmlns="http://www.w3.org/2000/svg"><g fill="#8bc34a"><path d="m3.685 20.306c-.203 0-.406-.082-.554-.244-2.019-2.211-3.131-5.074-3.131-8.062s1.112-5.851 3.131-8.062c.279-.306.753-.326 1.059-.047s.328.754.048 1.059c-1.765 1.933-2.738 4.437-2.738 7.05s.973 5.117 2.738 7.05c.279.306.258.78-.048 1.06-.144.131-.325.196-.505.196z"/><path d="m5.153 18.099c-.213 0-.424-.09-.573-.265-1.376-1.626-2.134-3.697-2.134-5.834s.758-4.208 2.134-5.834c.268-.316.74-.355 1.057-.087.316.268.355.741.087 1.057-1.146 1.354-1.778 3.082-1.778 4.864s.632 3.51 1.779 4.864c.268.316.229.79-.087 1.057-.142.12-.314.178-.485.178z"/><path d="m20.315 20.306c-.181 0-.362-.065-.506-.196-.306-.279-.327-.754-.048-1.06 1.766-1.933 2.739-4.437 2.739-7.05s-.973-5.117-2.738-7.05c-.279-.306-.258-.78.048-1.06.307-.278.78-.257 1.06.048 2.018 2.211 3.13 5.074 3.13 8.062s-1.112 5.851-3.131 8.062c-.148.162-.35.244-.554.244z"/><path d="m18.847 18.099c-.171 0-.343-.058-.484-.178-.316-.268-.355-.741-.087-1.057 1.147-1.354 1.779-3.082 1.779-4.864s-.632-3.51-1.779-4.864c-.268-.316-.229-.79.087-1.057.318-.268.79-.227 1.057.087 1.376 1.625 2.134 3.697 2.134 5.834s-.758 4.208-2.134 5.834c-.149.175-.36.265-.573.265z"/></g><path d="m15.609 3h-.859-5.5-.859c-1.043 0-1.891.925-1.891 2.063v13.875c0 1.137.848 2.062 1.891 2.062h7.219c1.043 0 1.891-.925 1.891-2.062v-13.875c-.001-1.138-.849-2.063-1.892-2.063z" fill="#607d8b"/><path d="m16.125 18.75c0 .414-.308.75-.688.75h-6.875c-.38 0-.688-.336-.688-.75v-13.75c0-.414.308-.75.688-.75h.344c.38 0 .687.336.687.75 0 .414.308.75.688.75h3.438c.38 0 .688-.336.688-.75 0-.414.308-.75.687-.75h.344c.38 0 .688.336.688.75v13.75z" fill="#eceff1"/></svg>