<svg id="color" enable-background="new 0 0 24 24" height="512" viewBox="0 0 24 24" width="512" xmlns="http://www.w3.org/2000/svg"><path d="m24 21.422v-1.172-7.5-1.172c0-1.422-1.233-2.578-2.75-2.578h-18.5c-1.517 0-2.75 1.156-2.75 2.578v9.844c0 1.422 1.233 2.578 2.75 2.578h18.5c1.517 0 2.75-1.156 2.75-2.578z" fill="#607d8b"/><path d="m3 22.125c-.552 0-1-.42-1-.937v-9.375c0-.518.448-.938 1-.938h18c.552 0 1 .42 1 .938v.469c0 .518-.448.937-1 .937-.552 0-1 .42-1 .938v4.688c0 .518.448.938 1 .938.552 0 1 .42 1 .937v.469c0 .518-.448.937-1 .937h-18z" fill="#eceff1"/><path d="m12.422 0h-1.172-7.5-1.172c-1.422 0-2.578 1.233-2.578 2.75v18.5c0 1.517 1.156 2.75 2.578 2.75h9.844c1.422 0 2.578-1.233 2.578-2.75v-18.5c0-1.517-1.156-2.75-2.578-2.75z" fill="#607d8b"/><path d="m13.125 21c0 .552-.42 1-.938 1h-9.375c-.518 0-.938-.448-.938-1v-18c0-.552.42-1 .938-1h.469c.518 0 .937.448.937 1 0 .552.42 1 .938 1h4.688c.518 0 .938-.448.938-1 0-.552.42-1 .937-1h.469c.518 0 .938.448.938 1v18z" fill="#eceff1"/><g fill="#2196f3"><path d="m21 7.25c-.292 0-.569-.127-.759-.349l-1.5-1.75c-.255-.296-.312-.714-.149-1.069.163-.354.517-.582.908-.582h3c.391 0 .745.228.908.582.163.355.105.772-.149 1.069l-1.5 1.75c-.19.222-.467.349-.759.349z"/><path d="m21 6.75c-.553 0-1-.448-1-1v-.75c0-1.242-.772-2.5-2.25-2.5-.553 0-1-.448-1-1s.447-1 1-1c2.423 0 4.25 1.935 4.25 4.5v.75c0 .552-.447 1-1 1z"/></g></svg>