<svg id="color" enable-background="new 0 0 24 24" height="512" viewBox="0 0 24 24" width="512" xmlns="http://www.w3.org/2000/svg"><path d="m22.433 7.344-.688-.688-4.401-4.401-.688-.688c-.834-.834-2.288-.737-3.242.216l-11.63 11.632c-.953.953-1.05 2.407-.216 3.242l5.776 5.776c.834.834 2.288.737 3.242-.216l11.631-11.631c.953-.954 1.05-2.408.216-3.242z" fill="#607d8b"/><path d="m9.642 20.959c-.347.347-.875.382-1.179.079l-5.501-5.501c-.304-.304-.269-.832.079-1.179l11.317-11.317c.347-.347.875-.382 1.179-.079l.275.275c.304.304.269.832-.079 1.179-.347.347-.382.875-.079 1.179l2.751 2.751c.304.304.832.269 1.179-.079.347-.347.875-.382 1.179-.079l.275.275c.304.304.269.832-.079 1.179z" fill="#eceff1"/><g fill="#2196f3"><path d="m13.836 24c-.336 0-.641-.202-.772-.513-.131-.313-.06-.674.18-.914l2.38-2.38c.167-.167.398-.257.633-.244.236.012.457.123.606.306l.882 1.079c2.697-1.433 4.555-4.265 4.581-7.504.004-.46.377-.83.836-.83h.007c.462.004.833.381.83.843-.043 5.556-4.6 10.113-10.156 10.157-.002 0-.004 0-.007 0z"/><path d="m10.164 0c.336 0 .641.202.772.513.131.313.06.674-.18.914l-2.38 2.38c-.168.167-.399.258-.634.244-.236-.012-.457-.123-.606-.306l-.882-1.079c-2.697 1.433-4.555 4.265-4.581 7.504-.004.46-.378.83-.837.83-.002 0-.004 0-.007 0-.461-.004-.832-.381-.829-.843.044-5.556 4.601-10.113 10.157-10.157z"/></g></svg>