<svg id="color" enable-background="new 0 0 24 24" height="512" viewBox="0 0 24 24" width="512" xmlns="http://www.w3.org/2000/svg"><path d="m17.25 0h-1.25-8-1.25c-1.517 0-2.75 1.233-2.75 2.75v18.5c0 1.517 1.233 2.75 2.75 2.75h10.5c1.517 0 2.75-1.233 2.75-2.75v-18.5c0-1.517-1.233-2.75-2.75-2.75z" fill="#607d8b"/><path d="m18 21c0 .552-.448 1-1 1h-10c-.552 0-1-.448-1-1v-18c0-.552.448-1 1-1h.5c.552 0 1 .448 1 1 0 .552.448 1 1 1h5c.552 0 1-.448 1-1 0-.552.448-1 1-1h.5c.552 0 1 .448 1 1z" fill="#eceff1"/><g fill="#2196f3"><path d="m8.175 9.8c-.373 0-.675-.303-.675-.675v-.55c0-.868.707-1.575 1.575-1.575h.45c.373 0 .675.302.675.675s-.302.675-.675.675h-.45c-.124 0-.225.101-.225.225v.55c0 .372-.302.675-.675.675z"/><path d="m15.825 9.8c-.373 0-.675-.302-.675-.675v-.55c0-.124-.101-.225-.225-.225h-.45c-.373 0-.675-.302-.675-.675s.302-.675.675-.675h.45c.868 0 1.575.707 1.575 1.575v.55c0 .372-.302.675-.675.675z"/><path d="m14.925 16h-.45c-.373 0-.675-.302-.675-.675s.302-.675.675-.675h.45c.124 0 .225-.101.225-.225v-.425c0-.373.302-.675.675-.675s.675.302.675.675v.425c0 .868-.707 1.575-1.575 1.575z"/><path d="m9.525 16h-.45c-.868 0-1.575-.707-1.575-1.575v-.45c0-.373.302-.675.675-.675s.675.302.675.675v.45c0 .124.101.225.225.225h.45c.373 0 .675.302.675.675s-.302.675-.675.675z"/><path d="m15.075 12.175h-6.15c-.373 0-.675-.302-.675-.675s.302-.675.675-.675h6.15c.373 0 .675.302.675.675s-.302.675-.675.675z"/></g></svg>