<svg id="color" enable-background="new 0 0 24 24" height="512" viewBox="0 0 24 24" width="512" xmlns="http://www.w3.org/2000/svg"><path d="m13.25 0h-1.25-8-1.25c-1.517 0-2.75 1.233-2.75 2.75v18.5c0 1.517 1.233 2.75 2.75 2.75h10.5c1.517 0 2.75-1.233 2.75-2.75v-18.5c0-1.517-1.233-2.75-2.75-2.75z" fill="#607d8b"/><path d="m14 21c0 .552-.448 1-1 1h-10c-.552 0-1-.448-1-1v-18c0-.552.448-1 1-1h.5c.552 0 1 .448 1 1 0 .552.448 1 1 1h5c.552 0 1-.448 1-1 0-.552.448-1 1-1h.5c.552 0 1 .448 1 1z" fill="#eceff1"/><g fill="#455a64"><path d="m23.25 18h-.842c-.414 0-.75-.336-.75-.75v-2c0-.414.336-.75.75-.75h.842c.414 0 .75.336.75.75v2c0 .414-.336.75-.75.75z"/><path d="m23.25 13.5h-.842c-.414 0-.75-.336-.75-.75v-2c0-.414.336-.75.75-.75h.842c.414 0 .75.336.75.75v2c0 .414-.336.75-.75.75z"/><path d="m20.4 9.5h-5.8c-.212 0-.414-.09-.556-.247-.143-.157-.212-.367-.19-.578l.311-3.1c.088-.897.837-1.575 1.74-1.575h3.189c.903 0 1.651.677 1.741 1.576l.311 3.1c.021.211-.048.421-.19.578-.142.156-.344.246-.556.246z"/><path d="m19.095 24h-3.189c-.903 0-1.652-.678-1.741-1.576l-.311-3.099c-.021-.211.048-.421.19-.578s.344-.247.556-.247h5.8c.212 0 .414.09.556.247.143.157.212.367.19.578l-.311 3.1c-.088.897-.837 1.575-1.74 1.575z"/></g><path d="m20.783 20h-6.816c-1.223 0-2.217-.995-2.217-2.217v-7.566c0-1.222.994-2.217 2.217-2.217h6.816c1.223 0 2.217.995 2.217 2.217v7.566c0 1.222-.994 2.217-2.217 2.217z" fill="#607d8b"/><path d="m14.217 9.75c-.396 0-.717.322-.717.717v7.066c0 .395.321.717.717.717h6.316c.396 0 .717-.322.717-.717v-7.066c0-.395-.321-.717-.717-.717z" fill="#eceff1"/></svg>