<svg id="color" enable-background="new 0 0 24 24" height="512" viewBox="0 0 24 24" width="512" xmlns="http://www.w3.org/2000/svg"><path d="m24 5.06v13.88c0 1.14-.9 2.06-2.02 2.06h-6.96c-1.12 0-2.02-.92-2.02-2.06v-.51c.54-.08 1.05-.22 1.54-.43h7.99v-12.56c0-.52-.41-.94-.91-.94h-6.24c-.5 0-.91.42-.91.94v.58c-.47-.21-.96-.35-1.47-.43v-.53c0-1.13.9-2.06 2.02-2.06h6.96c1.12 0 2.02.93 2.02 2.06z" fill="#607d8b"/><path d="m22.53 5.44v12.56h-7.99c2.13-.87 3.69-2.86 3.95-5.28.04-.42-.04-.83-.21-1.18.14-.29.22-.61.22-.96v-1.89c0-.91-.54-1.72-1.38-2.07-.28-.12-.57-.18-.87-.18-.25 0-.5.05-.74.13-.33-.22-.68-.4-1.04-.55v-.58c0-.52.41-.94.91-.94h6.24c.5 0 .91.42.91.94z" fill="#eceff1"/><path d="m9.62 5.93v-.93c0-.41-.3-.75-.68-.75h-.35c-.38 0-.68.34-.68.75s-.31.75-.69.75h-3.44c-.38 0-.69-.34-.69-.75s-.3-.75-.68-.75h-.35c-.38 0-.68.34-.68.75v13.75c0 .41.3.75.68.75h6.88c.38 0 .68-.34.68-.75v-.73c.44.18.9.32 1.38.39v.53c0 1.13-.85 2.06-1.89 2.06h-7.22c-1.04 0-1.89-.93-1.89-2.06v-13.88c0-1.13.85-2.06 1.89-2.06h7.22c1.04 0 1.89.93 1.89 2.06v.51c-.48.07-.94.19-1.38.36z" fill="#607d8b"/><path d="m5.51 11.28c-.04.42.04.83.21 1.18-.14.29-.22.61-.22.96v1.89c0 .91.54 1.72 1.39 2.07.27.12.56.18.86.18.26 0 .5-.05.74-.13.35.24.73.43 1.13.59v.73c0 .41-.3.75-.68.75h-6.88c-.38 0-.68-.34-.68-.75v-13.75c0-.41.3-.75.68-.75h.35c.38 0 .68.34.68.75s.31.75.69.75h3.44c.38 0 .69-.34.69-.75s.3-.75.68-.75h.35c.38 0 .68.34.68.75v.93c-2.21.84-3.85 2.86-4.11 5.35z" fill="#eceff1"/><g fill="#2196f3"><path d="m16.25 11.333h-1.889c-.304 0-.577-.183-.693-.463-.115-.28-.052-.603.163-.817l1.889-1.889c.214-.215.538-.28.817-.163.28.117.463.39.463.693v1.889c0 .415-.336.75-.75.75z"/><path d="m7.751 12.267c-.026 0-.053-.001-.08-.004-.412-.043-.71-.413-.667-.825.268-2.53 2.393-4.438 4.943-4.438 1.139 0 2.238.386 3.098 1.087.719.564 1.267 1.331 1.574 2.207.137.391-.069.819-.46.956-.392.135-.819-.069-.956-.46-.212-.606-.591-1.136-1.095-1.532-.603-.492-1.367-.758-2.161-.758-1.78 0-3.265 1.331-3.451 3.096-.041.384-.366.671-.745.671z"/><path d="m12.053 17c-1.139 0-2.238-.386-3.098-1.087-.719-.564-1.267-1.331-1.574-2.207-.137-.391.069-.819.46-.956.391-.136.819.069.956.46.212.606.591 1.136 1.095 1.532.604.492 1.367.758 2.161.758 1.78 0 3.265-1.331 3.451-3.096.044-.411.41-.707.825-.667.412.043.71.413.667.825-.268 2.53-2.393 4.438-4.943 4.438z"/><path d="m7.75 16.056c-.097 0-.194-.019-.287-.057-.28-.117-.463-.39-.463-.693v-1.889c0-.414.336-.75.75-.75h1.889c.304 0 .577.183.693.463.115.28.052.603-.163.817l-1.889 1.889c-.143.143-.335.22-.53.22z"/></g></svg>