<svg id="color" enable-background="new 0 0 24 24" height="512" viewBox="0 0 24 24" width="512" xmlns="http://www.w3.org/2000/svg"><path d="m23 14h-16c-.552 0-1-.448-1-1v-12c0-.552.448-1 1-1h16c.552 0 1 .448 1 1v12c0 .552-.448 1-1 1z" fill="#607d8b"/><path d="m7.75 1.75h14.5v10.5h-14.5z" fill="#eceff1"/><path d="m9.109 6h-.859-5.5-.859c-1.043 0-1.891.925-1.891 2.063v13.875c0 1.137.848 2.062 1.891 2.062h7.219c1.042 0 1.89-.925 1.89-2.062v-13.875c0-1.138-.848-2.063-1.891-2.063z" fill="#607d8b"/><path d="m9.625 21.75c0 .414-.308.75-.688.75h-6.875c-.38 0-.687-.336-.687-.75v-13.75c0-.414.308-.75.687-.75h.344c.38 0 .687.336.687.75 0 .414.308.75.688.75h3.438c.38 0 .688-.336.688-.75 0-.414.308-.75.687-.75h.344c.38 0 .688.336.688.75v13.75z" fill="#eceff1"/><path d="m13.75 21.25c-.256 0-.512-.098-.707-.293-.391-.391-.391-1.023 0-1.414l3-3c.391-.391 1.023-.391 1.414 0s.391 1.023 0 1.414l-3 3c-.195.195-.451.293-.707.293z" fill="#2196f3"/><path d="m17.25 20.5c-.26 0-.516-.102-.707-.293l-2.75-2.75c-.286-.286-.372-.716-.217-1.09.154-.374.52-.617.924-.617h2.75c.553 0 1 .448 1 1v2.75c0 .404-.243.769-.617.924-.124.051-.254.076-.383.076z" fill="#2196f3"/><g fill="#8bc34a"><path d="m15.5 10.523c-.689 0-1.25-.561-1.25-1.25s.561-1.25 1.25-1.25 1.25.561 1.25 1.25-.561 1.25-1.25 1.25z"/><path d="m17.544 8.457c-.254 0-.507-.096-.702-.288-.717-.706-1.967-.706-2.684 0-.396.388-1.027.381-1.415-.011-.387-.394-.382-1.026.011-1.414 1.471-1.448 4.021-1.448 5.492 0 .393.388.397 1.021.011 1.414-.196.199-.454.299-.713.299z"/><path d="m19.25 6.527c-.253 0-.507-.096-.701-.287-.813-.8-1.896-1.24-3.049-1.24s-2.236.44-3.049 1.24c-.394.387-1.026.381-1.414-.011-.388-.394-.382-1.027.012-1.415 1.188-1.169 2.769-1.814 4.451-1.814s3.263.645 4.451 1.814c.394.388.399 1.021.012 1.415-.196.199-.454.298-.713.298z"/></g></svg>