<svg id="color" enable-background="new 0 0 24 24" height="512" viewBox="0 0 24 24" width="512" xmlns="http://www.w3.org/2000/svg"><path d="m2.5 12c0 1.38 1.12 2.5 2.5 2.5h1c.51 0 .98-.15 1.38-.42.39.27.86.42 1.37.42h2.25v4.44c0 1.13-.85 2.06-1.89 2.06h-7.22c-1.04 0-1.89-.93-1.89-2.06v-13.88c0-1.13.85-2.06 1.89-2.06h7.22c1.04 0 1.89.93 1.89 2.06v4.44h-2.25c-.51 0-.98.15-1.37.42-.4-.27-.87-.42-1.38-.42h-1c-1.38 0-2.5 1.12-2.5 2.5z" fill="#607d8b"/><path d="m2.5 12c0 1.38 1.12 2.5 2.5 2.5h1c.51 0 .98-.15 1.38-.42.39.27.86.42 1.37.42h.87v4.25c0 .41-.3.75-.68.75h-6.88c-.38 0-.68-.34-.68-.75v-13.75c0-.41.3-.75.68-.75h.35c.38 0 .68.34.68.75s.31.75.69.75h3.44c.38 0 .69-.34.69-.75s.3-.75.68-.75h.35c.38 0 .68.34.68.75v4.5h-.87c-.51 0-.98.15-1.37.42-.4-.27-.87-.42-1.38-.42h-1c-1.38 0-2.5 1.12-2.5 2.5z" fill="#eceff1"/><path d="m22.29 6.62-.21-2.2c-.08-.81-.75-1.42-1.55-1.42h-2.84c-.8 0-1.47.61-1.54 1.42l-.22 2.18-.06.61c-.01.11 0 .21.04.31.11-.01.23-.02.34-.02.52 0 1.01.16 1.42.45h4.02c.19 0 .37-.08.49-.22.13-.14.19-.33.17-.52z" fill="#455a64"/><path d="m22.18 16.27c-.12-.14-.3-.22-.49-.22h-4.02c-.41.29-.9.45-1.42.45-.11 0-.23-.01-.34-.02-.04.1-.05.2-.04.31l.06.61.22 2.18c.07.81.74 1.42 1.54 1.42h2.84c.8 0 1.47-.61 1.55-1.42l.21-2.2.06-.59c.02-.19-.04-.38-.17-.52z" fill="#455a64"/><path d="m22.29 6.62c-.08-.01-.17-.02-.26-.02h-6.1c-1.07.02-1.93.91-1.93 2v.36c.25-.56.69-1.02 1.28-1.27.2-.09.42-.14.63-.17.11-.01.23-.02.34-.02.52 0 1.01.16 1.42.45.1.07.2.15.29.23.01.01.03.03.04.04l2.03 2c.48.47.75 1.11.75 1.78s-.27 1.31-.75 1.78l-2.03 2c-.01.01-.03.03-.04.04-.09.08-.19.16-.29.23-.41.29-.9.45-1.42.45-.11 0-.23-.01-.34-.02-.21-.03-.42-.08-.62-.17-.6-.25-1.04-.71-1.29-1.27v.36c0 1.09.86 1.98 1.93 2h6.1c.09 0 .18-.01.26-.02.97-.13 1.71-.97 1.71-1.98v-6.8c0-1.01-.74-1.85-1.71-1.98z" fill="#607d8b"/><path d="m22.44 8.82v6.36c0 .36-.28.64-.63.64h-3.85c.01-.01.03-.03.04-.04l2.03-2c.48-.47.75-1.11.75-1.78s-.27-1.31-.75-1.78l-2.03-2c-.01-.01-.03-.03-.04-.04h3.85c.35 0 .63.28.63.64z" fill="#eceff1"/><g fill="#2196f3"><path d="m15.75 13h-7c-.552 0-1-.448-1-1s.448-1 1-1h7c.552 0 1 .448 1 1s-.448 1-1 1z"/><path d="m16.25 15c-.13 0-.261-.025-.386-.078-.372-.155-.614-.519-.614-.922v-4c0-.403.242-.767.614-.922s.8-.073 1.088.21l2.03 2c.191.188.298.445.298.712s-.107.524-.298.712l-2.03 2c-.191.188-.445.288-.702.288z"/><path d="m6 13h-1c-.552 0-1-.448-1-1s.448-1 1-1h1c.552 0 1 .448 1 1s-.448 1-1 1z"/></g></svg>