<svg id="color" enable-background="new 0 0 24 24" height="512" viewBox="0 0 24 24" width="512" xmlns="http://www.w3.org/2000/svg"><path d="m15.609 2h-.859-5.5-.859c-1.043 0-1.891.925-1.891 2.063v13.875c0 1.137.848 2.062 1.891 2.062h7.219c1.043 0 1.891-.925 1.891-2.062v-13.875c-.001-1.138-.849-2.063-1.892-2.063z" fill="#607d8b"/><path d="m16.125 17.75c0 .414-.308.75-.688.75h-6.875c-.38 0-.688-.336-.688-.75v-13.75c0-.414.308-.75.688-.75h.344c.38 0 .687.336.687.75 0 .414.308.75.688.75h3.438c.38 0 .688-.336.688-.75 0-.414.308-.75.687-.75h.344c.38 0 .688.336.688.75v13.75z" fill="#eceff1"/><g fill="#2196f3"><path d="m3.5 22.25c-.238 0-.478-.084-.669-.257l-2.5-2.25c-.204-.183-.323-.443-.331-.717-.007-.274.099-.54.293-.733l1.793-1.793-1.793-1.793c-.391-.391-.391-1.023 0-1.414l1.793-1.793-1.793-1.793c-.391-.391-.391-1.023 0-1.414l1.793-1.793-1.793-1.793c-.194-.194-.3-.459-.293-.733.008-.274.127-.534.331-.717l2.5-2.25c.411-.37 1.042-.336 1.412.074.369.411.336 1.043-.074 1.412l-1.717 1.545 1.755 1.755c.391.391.391 1.023 0 1.414l-1.793 1.793 1.793 1.793c.391.391.391 1.023 0 1.414l-1.793 1.793 1.793 1.793c.391.391.391 1.023 0 1.414l-1.755 1.755 1.717 1.545c.41.369.443 1.001.074 1.412-.197.219-.47.331-.743.331z"/><path d="m20.5 22.25c-.273 0-.546-.112-.743-.331-.369-.411-.336-1.043.074-1.412l1.717-1.545-1.755-1.755c-.391-.391-.391-1.023 0-1.414l1.793-1.793-1.793-1.793c-.391-.391-.391-1.023 0-1.414l1.793-1.793-1.793-1.793c-.391-.391-.391-1.023 0-1.414l1.755-1.755-1.717-1.545c-.41-.369-.443-1.001-.074-1.412.37-.41 1.002-.444 1.412-.074l2.5 2.25c.204.183.323.443.331.717.007.274-.099.54-.293.733l-1.793 1.793 1.793 1.793c.391.391.391 1.023 0 1.414l-1.793 1.793 1.793 1.793c.391.391.391 1.023 0 1.414l-1.793 1.793 1.793 1.793c.194.194.3.459.293.733-.008.274-.127.533-.331.717l-2.5 2.25c-.191.172-.431.257-.669.257z"/></g></svg>