<svg id="color" enable-background="new 0 0 24 24" height="512" viewBox="0 0 24 24" width="512" xmlns="http://www.w3.org/2000/svg"><path d="m8.29 6.62-.21-2.2c-.08-.81-.75-1.42-1.55-1.42h-2.84c-.8 0-1.47.61-1.54 1.42l-.22 2.18-.06.61c-.02.19.04.38.17.52.12.14.3.22.49.22h5.05c.06-.08.12-.15.19-.22.17-.18.37-.33.58-.44v-.08z" fill="#455a64"/><path d="m7.77 16.27c-.07-.07-.13-.14-.19-.22h-5.05c-.19 0-.37.08-.49.22-.13.14-.19.33-.17.52l.06.61.22 2.18c.07.81.74 1.42 1.54 1.42h2.84c.8 0 1.47-.61 1.55-1.42l.21-2.2.06-.59v-.08c-.21-.11-.41-.26-.58-.44z" fill="#455a64"/><path d="m7.77 16.27c-.07-.07-.13-.14-.19-.22-.05-.07-.11-.15-.16-.23h-5.23c-.35 0-.63-.28-.63-.64v-6.36c0-.36.28-.64.63-.64h5.23c.05-.08.1-.15.16-.23s.12-.15.19-.22c.17-.18.37-.33.58-.44.25-.16.52-.27.81-.33-.25-.18-.54-.3-.87-.34-.08-.01-.17-.02-.26-.02h-6.1c-1.07.02-1.93.91-1.93 2v6.8c0 1.09.86 1.98 1.93 2h6.1c.09 0 .18-.01.26-.02.33-.04.62-.16.87-.34-.29-.06-.56-.17-.81-.33-.21-.11-.41-.26-.58-.44z" fill="#607d8b"/><path d="m7.84 12.38c-.95.92-1.1 2.36-.42 3.44h-5.23c-.35 0-.63-.28-.63-.64v-6.36c0-.36.28-.64.63-.64h5.23c-.28.45-.43.97-.42 1.51.02.74.32 1.42.84 1.93l.4.38z" fill="#eceff1"/><path d="m24 5.06v13.88c0 1.14-.9 2.06-2.02 2.06h-6.96c-1.12 0-2.02-.92-2.02-2.06v-.14c.36-.13.68-.34.96-.62l.51-.52v.34h8.06v-12.56c0-.52-.41-.94-.91-.94h-6.24c-.5 0-.91.42-.91.94v.9l-.51-.52c-.28-.28-.6-.49-.96-.63v-.13c0-1.13.9-2.06 2.02-2.06h6.96c1.12 0 2.02.93 2.02 2.06z" fill="#607d8b"/><path d="m22.53 5.44v12.56h-8.06v-.34l1.74-1.77c.51-.52.8-1.24.79-1.97-.01-.72-.31-1.41-.82-1.92.51-.5.81-1.2.82-1.92.01-.73-.28-1.45-.79-1.97l-1.74-1.77v-.9c0-.52.41-.94.91-.94h6.24c.5 0 .91.42.91.94z" fill="#eceff1"/><path d="m12 17c-.096 0-.192-.018-.284-.056-.282-.116-.466-.39-.466-.694v-2.29l-.98.942c-.299.286-.773.277-1.061-.021-.287-.299-.277-.773.021-1.061l1.895-1.82-1.895-1.82c-.298-.287-.308-.762-.021-1.061.288-.298.763-.308 1.061-.021l.98.942v-2.29c0-.305.184-.579.466-.694.283-.115.605-.049.819.168l2.25 2.289c.141.143.218.336.215.537s-.086.391-.23.53l-1.479 1.42 1.479 1.42c.145.139.228.33.23.53s-.075.394-.215.537l-2.25 2.289c-.144.146-.338.224-.535.224zm.75-3.439v.857l.433-.441zm0-3.978v.857l.433-.416z" fill="#2196f3"/></svg>