<svg id="color" enable-background="new 0 0 24 24" height="512" viewBox="0 0 24 24" width="512" xmlns="http://www.w3.org/2000/svg"><path d="m7.689 7.95h-5.156c-.188 0-.368-.081-.494-.222-.127-.142-.188-.33-.169-.52l.276-2.79c.079-.808.745-1.418 1.548-1.418h2.835c.803 0 1.468.61 1.548 1.418l.276 2.79c.019.19-.043.379-.169.52-.127.141-.306.222-.495.222z" fill="#455a64"/><path d="m6.529 21h-2.835c-.803 0-1.469-.61-1.548-1.419l-.276-2.789c-.019-.19.043-.379.169-.52s.306-.222.494-.222h5.156c.188 0 .368.081.494.222.127.142.188.33.169.52l-.276 2.79c-.079.808-.744 1.418-1.547 1.418z" fill="#455a64"/><path d="m8.61 14.89c-.06-.01-.12-.03-.17-.05v.34c0 .36-.28.64-.63.64h-5.62c-.35 0-.63-.28-.63-.64v-6.36c0-.36.28-.64.63-.64h5.62c.35 0 .63.28.63.64v.34c.05-.02.11-.04.17-.05.14-.35.34-.68.62-.97.17-.17.37-.31.57-.41-.32-.67-.99-1.13-1.77-1.13h-6.06c-1.09 0-1.97.9-1.97 2v6.8c0 1.1.88 2 1.97 2h6.06c.78 0 1.45-.46 1.76-1.12-.2-.11-.39-.26-.56-.42-.28-.28-.48-.61-.62-.97z" fill="#607d8b"/><path d="m6.3 12c0 1.35.9 2.49 2.14 2.84v.34c0 .36-.28.64-.63.64h-5.62c-.35 0-.63-.28-.63-.64v-6.36c0-.36.28-.64.63-.64h5.62c.35 0 .63.28.63.64v.34c-1.24.35-2.14 1.49-2.14 2.84z" fill="#eceff1"/><path d="m24 5.06v13.88c0 1.13-.85 2.06-1.89 2.06h-7.22c-1.04 0-1.89-.93-1.89-2.06v-.7c.5-.04.98-.22 1.38-.52v1.03c0 .41.3.75.68.75h6.88c.38 0 .68-.34.68-.75v-13.75c0-.41-.3-.75-.68-.75h-.35c-.38 0-.68.34-.68.75s-.31.75-.69.75h-3.44c-.38 0-.69-.34-.69-.75s-.3-.75-.68-.75h-.35c-.38 0-.68.34-.68.75v1.28c-.4-.3-.87-.48-1.38-.52v-.7c0-1.13.85-2.06 1.89-2.06h7.22c1.04 0 1.89.93 1.89 2.06z" fill="#607d8b"/><path d="m22.62 5v13.75c0 .41-.3.75-.68.75h-6.88c-.38 0-.68-.34-.68-.75v-1.03c.12-.08.23-.18.33-.28 1.44-1.45 2.24-3.38 2.24-5.44s-.8-3.99-2.24-5.44c-.1-.1-.21-.2-.33-.28v-1.28c0-.41.3-.75.68-.75h.35c.38 0 .68.34.68.75s.31.75.69.75h3.44c.38 0 .69-.34.69-.75s.3-.75.68-.75h.35c.38 0 .68.34.68.75z" fill="#eceff1"/><g fill="#8bc34a"><path d="m9.277 12.975c-.537 0-.974-.438-.974-.975s.437-.975.974-.975.973.437.973.975-.437.975-.973.975z"/><path d="m11.173 14.657c-.191 0-.382-.073-.529-.218-.293-.292-.295-.767-.003-1.061.367-.369.569-.858.569-1.378s-.202-1.009-.569-1.378c-.292-.294-.291-.769.003-1.061s.769-.291 1.061.003c.648.652 1.005 1.517 1.005 2.436s-.357 1.784-1.005 2.436c-.146.147-.339.221-.532.221z"/><path d="m12.756 16.25c-.191 0-.382-.073-.529-.218-.294-.292-.295-.767-.003-1.061.788-.792 1.222-1.848 1.222-2.971s-.434-2.179-1.222-2.971c-.292-.293-.291-.769.003-1.061s.769-.291 1.061.003c1.07 1.075 1.659 2.506 1.659 4.029s-.589 2.954-1.659 4.029c-.146.147-.339.221-.532.221z"/></g></svg>