<svg id="color" enable-background="new 0 0 24 24" height="512" viewBox="0 0 24 24" width="512" xmlns="http://www.w3.org/2000/svg"><path d="m7.689 7.95h-5.156c-.188 0-.368-.081-.494-.222-.127-.142-.188-.33-.169-.52l.276-2.79c.079-.808.745-1.418 1.548-1.418h2.835c.803 0 1.468.61 1.548 1.418l.276 2.79c.019.19-.043.379-.169.52-.127.141-.306.222-.495.222z" fill="#455a64"/><path d="m6.529 21h-2.835c-.803 0-1.469-.61-1.548-1.419l-.276-2.789c-.019-.19.043-.379.169-.52s.306-.222.494-.222h5.156c.188 0 .368.081.494.222.127.142.188.33.169.52l-.276 2.79c-.079.808-.744 1.418-1.547 1.418z" fill="#455a64"/><path d="m8.61 14.89c-.06-.01-.12-.03-.17-.05v.34c0 .36-.28.64-.63.64h-5.62c-.35 0-.63-.28-.63-.64v-6.36c0-.36.28-.64.63-.64h5.62c.35 0 .63.28.63.64v.34c.05-.02.11-.04.17-.05.14-.35.34-.68.62-.97.17-.17.37-.31.57-.41-.32-.67-.99-1.13-1.77-1.13h-6.06c-1.09 0-1.97.9-1.97 2v6.8c0 1.1.88 2 1.97 2h6.06c.78 0 1.45-.46 1.76-1.12-.2-.11-.39-.26-.56-.42-.28-.28-.48-.61-.62-.97z" fill="#607d8b"/><path d="m6.3 12c0 1.35.9 2.49 2.14 2.84v.34c0 .36-.28.64-.63.64h-5.62c-.35 0-.63-.28-.63-.64v-6.36c0-.36.28-.64.63-.64h5.62c.35 0 .63.28.63.64v.34c-1.24.35-2.14 1.49-2.14 2.84z" fill="#eceff1"/><path d="m21.689 7.95h-5.156c-.188 0-.368-.081-.494-.222-.127-.142-.188-.33-.169-.52l.276-2.79c.079-.808.745-1.418 1.548-1.418h2.835c.803 0 1.468.61 1.548 1.418l.276 2.79c.019.19-.043.379-.169.52-.127.141-.306.222-.495.222z" fill="#455a64"/><path d="m20.529 21h-2.835c-.803 0-1.469-.61-1.548-1.419l-.276-2.789c-.019-.19.043-.379.169-.52s.306-.222.494-.222h5.156c.188 0 .368.081.494.222.127.142.188.33.169.52l-.276 2.79c-.079.808-.744 1.418-1.547 1.418z" fill="#455a64"/><path d="m22.03 6.6h-6.06c-.36 0-.7.09-.98.27.38.42.71.87.97 1.35.07-.03.15-.04.23-.04h5.62c.35 0 .63.28.63.64v6.36c0 .36-.28.64-.63.64h-5.62c-.08 0-.16-.01-.23-.04-.26.48-.59.93-.97 1.35.28.18.62.27.98.27h6.06c1.09 0 1.97-.9 1.97-2v-6.8c0-1.1-.88-2-1.97-2z" fill="#607d8b"/><path d="m22.44 8.82v6.36c0 .36-.28.64-.63.64h-5.62c-.08 0-.16-.01-.23-.04.65-1.14.99-2.43.99-3.78s-.34-2.64-.99-3.78c.07-.03.15-.04.23-.04h5.62c.35 0 .63.28.63.64z" fill="#eceff1"/><g fill="#8bc34a"><path d="m9.277 12.975c-.537 0-.974-.438-.974-.975s.437-.975.974-.975.973.437.973.975-.437.975-.973.975z"/><path d="m11.173 14.657c-.191 0-.382-.073-.529-.218-.293-.292-.295-.767-.003-1.061.367-.369.569-.858.569-1.378s-.202-1.009-.569-1.378c-.292-.294-.291-.769.003-1.061s.769-.291 1.061.003c.648.652 1.005 1.517 1.005 2.436s-.357 1.784-1.005 2.436c-.146.147-.339.221-.532.221z"/><path d="m12.756 16.25c-.191 0-.382-.073-.529-.218-.294-.292-.295-.767-.003-1.061.788-.792 1.222-1.848 1.222-2.971s-.434-2.179-1.222-2.971c-.292-.293-.291-.769.003-1.061s.769-.291 1.061.003c1.07 1.075 1.659 2.506 1.659 4.029s-.589 2.954-1.659 4.029c-.146.147-.339.221-.532.221z"/></g></svg>