<svg id="color" enable-background="new 0 0 24 24" height="512" viewBox="0 0 24 24" width="512" xmlns="http://www.w3.org/2000/svg"><path d="m24 5.06v13.88c0 1.13-.85 2.06-1.89 2.06h-7.22c-1.04 0-1.89-.93-1.89-2.06v-4.44h.82c.09.43.28.82.56 1.14v3.11c0 .41.3.75.68.75h6.88c.38 0 .68-.34.68-.75v-13.75c0-.41-.3-.75-.68-.75h-.35c-.38 0-.68.34-.68.75s-.31.75-.69.75h-3.44c-.38 0-.69-.34-.69-.75s-.3-.75-.68-.75h-.35c-.38 0-.68.34-.68.75v3.35c-.27.32-.47.72-.56 1.15h-.82v-4.44c0-1.13.85-2.06 1.89-2.06h7.22c1.04 0 1.89.93 1.89 2.06z" fill="#607d8b"/><path d="m22.62 5v13.75c0 .41-.3.75-.68.75h-6.88c-.38 0-.68-.34-.68-.75v-3.11c.24.29.55.52.91.67.3.13.63.19.96.19.66 0 1.28-.26 1.75-.72l2.03-2c.48-.47.75-1.11.75-1.78s-.27-1.31-.75-1.78l-2.03-2c-.47-.46-1.09-.72-1.75-.72-.33 0-.66.06-.97.19-.35.15-.66.38-.9.66v-3.35c0-.41.3-.75.68-.75h.35c.38 0 .68.34.68.75s.31.75.69.75h3.44c.38 0 .69-.34.69-.75s.3-.75.68-.75h.35c.38 0 .68.34.68.75z" fill="#eceff1"/><path d="m8.29 6.62-.21-2.2c-.08-.81-.75-1.42-1.55-1.42h-2.84c-.8 0-1.47.61-1.54 1.42l-.22 2.18-.06.61c-.02.19.04.38.17.52.12.14.3.22.49.22h5.16c.19 0 .37-.08.49-.22.13-.14.19-.33.17-.52z" fill="#455a64"/><path d="m8.18 16.27c-.12-.14-.3-.22-.49-.22h-5.16c-.19 0-.37.08-.49.22-.13.14-.19.33-.17.52l.06.61.22 2.18c.07.81.74 1.42 1.54 1.42h2.84c.8 0 1.47-.61 1.55-1.42l.21-2.2.06-.59c.02-.19-.04-.38-.17-.52z" fill="#455a64"/><path d="m8.75 9.5h1.25v-.9c0-1.01-.74-1.85-1.71-1.98-.08-.01-.17-.02-.26-.02h-6.1c-1.07.02-1.93.91-1.93 2v6.8c0 1.09.86 1.98 1.93 2h6.1c.09 0 .18-.01.26-.02.97-.13 1.71-.97 1.71-1.98v-.9h-1.25c-.11 0-.21-.01-.31-.03v.71c0 .36-.28.64-.63.64h-5.62c-.35 0-.63-.28-.63-.64v-6.36c0-.36.28-.64.63-.64h5.62c.35 0 .63.28.63.64v.71c.1-.02.2-.03.31-.03z" fill="#607d8b"/><path d="m2.5 12c0 1.38 1.12 2.5 2.5 2.5h1c.51 0 .98-.15 1.38-.42.31.21.67.35 1.06.39v.71c0 .36-.28.64-.63.64h-5.62c-.35 0-.63-.28-.63-.64v-6.36c0-.36.28-.64.63-.64h5.62c.35 0 .63.28.63.64v.71c-.39.04-.75.18-1.06.39-.4-.27-.87-.42-1.38-.42h-1c-1.38 0-2.5 1.12-2.5 2.5z" fill="#eceff1"/><g fill="#2196f3"><path d="m15.75 13h-7c-.552 0-1-.448-1-1s.448-1 1-1h7c.552 0 1 .448 1 1s-.448 1-1 1z"/><path d="m16.25 15c-.13 0-.261-.025-.386-.078-.372-.155-.614-.519-.614-.922v-4c0-.403.242-.767.614-.922s.8-.073 1.088.21l2.03 2c.191.188.298.445.298.712s-.107.524-.298.712l-2.03 2c-.191.188-.445.288-.702.288z"/><path d="m6 13h-1c-.552 0-1-.448-1-1s.448-1 1-1h1c.552 0 1 .448 1 1s-.448 1-1 1z"/></g></svg>