<svg id="color" enable-background="new 0 0 24 24" height="512" viewBox="0 0 24 24" width="512" xmlns="http://www.w3.org/2000/svg"><path d="m23.25 3h-17.5c-2.619 0-4.75 2.131-4.75 4.75v15.5c0 .414.336.75.75.75h21.5c.414 0 .75-.336.75-.75v-19.5c0-.414-.336-.75-.75-.75z" fill="#607d8b"/><path d="m16.975 17.271c-.002.934-.765 1.696-1.699 1.7l-8.565.029c-.002 0-.004 0-.006 0-.455 0-.883-.177-1.205-.499-.324-.323-.501-.753-.5-1.211l.025-8.561c.002-.934.765-1.696 1.699-1.7l8.565-.029c.427-.007.887.175 1.211.499.324.323.501.753.5 1.211z" fill="#455a64"/><g fill="#90a4ae"><circle cx="8.25" cy="10.25" r="1.75"/><circle cx="8.25" cy="15.75" r="1.75"/><circle cx="13.25" cy="13.75" r="1.75"/></g><circle cx="14" cy="10" fill="#cfd8dc" r="1"/></svg>