<svg id="color" enable-background="new 0 0 24 24" height="512" viewBox="0 0 24 24" width="512" xmlns="http://www.w3.org/2000/svg"><path d="m22 24h-18v-17.25c0-1.519 1.231-2.75 2.75-2.75h12.5c1.519 0 2.75 1.231 2.75 2.75z" fill="#607d8b"/><g fill="#2196f3"><path d="m7 8c-.551 0-1-.449-1-1s.449-1 1-1 1 .449 1 1-.449 1-1 1z"/><path d="m10 8c-.551 0-1-.449-1-1s.449-1 1-1 1 .449 1 1-.449 1-1 1z"/><path d="m8.5 4c-.414 0-.75-.336-.75-.75v-2.5c0-.414.336-.75.75-.75s.75.336.75.75v2.5c0 .414-.336.75-.75.75z"/><path d="m11.225 5.025c-.192 0-.384-.073-.53-.22-.293-.293-.293-.768 0-1.061l1.621-1.621c.293-.293.768-.293 1.061 0s.293.768 0 1.061l-1.621 1.621c-.147.147-.339.22-.531.22z"/><path d="m15.25 7.75h-2.5c-.414 0-.75-.336-.75-.75s.336-.75.75-.75h2.5c.414 0 .75.336.75.75s-.336.75-.75.75z"/><path d="m13.096 12.346c-.192 0-.384-.073-.53-.22l-1.871-1.871c-.293-.293-.293-.768 0-1.061s.768-.293 1.061 0l1.871 1.871c.293.293.293.768 0 1.061-.147.147-.339.22-.531.22z"/><path d="m8.5 14c-.414 0-.75-.336-.75-.75v-2.5c0-.414.336-.75.75-.75s.75.336.75.75v2.5c0 .414-.336.75-.75.75z"/><path d="m3.904 12.096c-.192 0-.384-.073-.53-.22-.293-.293-.293-.768 0-1.061l1.621-1.621c.293-.293.768-.293 1.061 0s.293.768 0 1.061l-1.621 1.621c-.147.147-.339.22-.531.22z"/><path d="m4.25 7.75h-2.5c-.414 0-.75-.336-.75-.75s.336-.75.75-.75h2.5c.414 0 .75.336.75.75s-.336.75-.75.75z"/><path d="m5.525 5.025c-.192 0-.384-.073-.53-.22l-1.621-1.621c-.293-.293-.293-.768 0-1.061s.768-.293 1.061 0l1.621 1.621c.293.293.293.768 0 1.061-.147.147-.339.22-.531.22z"/></g></svg>