<svg id="color" enable-background="new 0 0 24 24" height="512" viewBox="0 0 24 24" width="512" xmlns="http://www.w3.org/2000/svg"><path d="m1 23.991v-15.241c0-3.176 2.574-5.75 5.75-5.75h17.25l-.003 21.253z" fill="#607d8b"/><path d="m8.75 21h-.5c-1.792 0-3.25-1.458-3.25-3.25v-7.5c0-1.792 1.458-3.25 3.25-3.25h.5c1.792 0 3.25 1.458 3.25 3.25v7.5c0 1.792-1.458 3.25-3.25 3.25z" fill="#eceff1"/><g fill="#455a64"><path d="m8.5 13c-.827 0-1.5-.673-1.5-1.5s.673-1.5 1.5-1.5 1.5.673 1.5 1.5-.673 1.5-1.5 1.5z"/><path d="m8.5 18c-.827 0-1.5-.673-1.5-1.5s.673-1.5 1.5-1.5 1.5.673 1.5 1.5-.673 1.5-1.5 1.5z"/></g></svg>