<svg id="color" enable-background="new 0 0 24 24" height="512" viewBox="0 0 24 24" width="512" xmlns="http://www.w3.org/2000/svg"><g fill="#2196f3"><path d="m19.555 11.012c-.257 0-.514-.098-.709-.294-1.83-1.839-4.261-2.851-6.846-2.851s-5.016 1.013-6.846 2.851c-.389.392-1.023.394-1.414.003-.392-.39-.394-1.022-.004-1.414 2.209-2.219 5.144-3.44 8.264-3.44s6.055 1.222 8.264 3.44c.39.392.388 1.024-.004 1.414-.195.194-.45.291-.705.291z"/><path d="m16.925 13.653c-.257 0-.514-.098-.709-.294-1.129-1.134-2.626-1.759-4.216-1.759s-3.087.625-4.216 1.759c-.389.392-1.023.393-1.414.003-.392-.39-.394-1.023-.004-1.415 1.507-1.513 3.508-2.347 5.634-2.347s4.127.834 5.634 2.348c.39.392.388 1.025-.004 1.415-.194.193-.45.29-.705.29z"/><path d="m12 18.133c-1.319 0-2.394-1.077-2.394-2.4s1.074-2.4 2.394-2.4 2.394 1.077 2.394 2.4-1.075 2.4-2.394 2.4z"/><path d="m12 24c-6.617 0-12-5.383-12-12s5.383-12 12-12 12 5.383 12 12-5.383 12-12 12zm0-22c-5.514 0-10 4.486-10 10s4.486 10 10 10 10-4.486 10-10-4.486-10-10-10z"/></g></svg>